<?xml version="1.0" standalone="no"?>
<!DOCTYPE svg PUBLIC "-//W3C//DTD SVG 1.1//EN" "http://www.w3.org/Graphics/SVG/1.1/DTD/svg11.dtd" >
<svg xmlns="http://www.w3.org/2000/svg" xmlns:xlink="http://www.w3.org/1999/xlink" version="1.1">
<metadata>
Created by FontForge 20200314 at Fri Sep  5 23:44:28 2014
 By Unknown
(c)2001 NuevoDeco Typography by David Bergsland
</metadata>
<defs>
<font id="AltraW00-SmallCaps" horiz-adv-x="617" >
  <font-face 
    font-family="Altra"
    font-weight="400"
    font-variant="small-caps"
    font-stretch="normal"
    units-per-em="1000"
    panose-1="1 0 0 0 0 0 0 0 0 0"
    ascent="800"
    descent="-200"
    x-height="480"
    cap-height="644"
    bbox="-19 -299 993 716"
    underline-thickness="50"
    underline-position="-175"
    unicode-range="U+0020-F002"
  />
<missing-glyph horiz-adv-x="500" 
d="M63 0v700h375v-700h-375zM125 63h250v575h-250v-575z" />
    <glyph glyph-name=".notdef" horiz-adv-x="500" 
d="M63 0v700h375v-700h-375zM125 63h250v575h-250v-575z" />
    <glyph glyph-name="glyph1" horiz-adv-x="0" 
 />
    <glyph glyph-name="glyph1" horiz-adv-x="0" 
 />
    <glyph glyph-name="glyph2" horiz-adv-x="262" 
 />
    <glyph glyph-name="space" unicode=" " horiz-adv-x="262" 
 />
    <glyph glyph-name="exclam" unicode="!" horiz-adv-x="199" 
d="M131 626q0 -37 -28 -154v-231q0 -12 3.5 -36.5t3.5 -25.5q0 -11 -2.5 -13t-15.5 -3q-36 -2 -57 0q-10 1 -20 3q0 1 -1.5 3.5t-1.5 6.5t7 44.5t7 62.5v216l-23 130q5 5 5 8h119q4 -5 4 -11zM122 45q0 -10 -12 -28q-14 -22 -30 -22h-34q-16 0 -27 21q-10 18 -10 35t18 32.5
t37 15.5q24 0 41 -18.5t17 -35.5z" />
    <glyph glyph-name="quotedbl" unicode="&#x22;" horiz-adv-x="326" 
d="M257 699l-18 -167h-31l-19 167h68zM123 699l-16 -167h-33l-18 167h67z" />
    <glyph glyph-name="numbersign" unicode="#" horiz-adv-x="521" 
d="M440 399h-129l-34 -130h-54l34 130h-97l-35 -130h-54l35 130h-83v32h91l31 116h-122v32h130l31 118h55l-32 -118h97l32 118h54l-32 -118h82v-32h-90l-31 -116h121v-32zM296 547h-97l-31 -116h97z" />
    <glyph glyph-name="dollar" unicode="$" horiz-adv-x="558" 
d="M482 211q0 -66 -86 -141q-77 -67 -154 -88l-22 -139h-73l21 140q-41 12 -86 41t-68 58q63 63 74 63l30 -21q34 -26 66 -42l30 198q-78 28 -111 53q-50 36 -50 88q0 68 76 134q66 59 140 78l11 62h73l-11 -63q126 -29 126 -83q0 -7 -63 -65q-36 42 -76 63l-29 -187
q89 -32 124 -56q58 -38 58 -93zM259 569q-12 1 -24 1q-39 0 -70 -27t-31 -63q0 -54 97 -94zM397 142q0 67 -113 112l-30 -194q9 -1 19 -1q47 0 82 19q42 23 42 64z" />
    <glyph glyph-name="percent" unicode="%" horiz-adv-x="814" 
d="M746 151q-4 -75 -43 -123q-44 -53 -119 -52q-74 1 -115 54q-37 47 -40 120q-3 80 38 132q45 56 125 55q78 -1 119 -55q38 -50 35 -131zM632 641q27 43 -382 -666h-94l360 627l-223 2q58 -50 54 -150q-4 -76 -43 -124q-43 -52 -118 -51q-73 0 -115 53q-37 47 -40 121
q-3 77 43 131.5t118 54.5zM656 152q2 102 -67 102q-37 1 -55 -27t-15 -74q5 -93 66 -93q69 -1 71 92zM258 455q3 100 -67 101q-38 1 -56 -26.5t-16 -73.5q6 -92 69 -94q67 -1 70 93z" />
    <glyph glyph-name="ampersand" unicode="&#x26;" horiz-adv-x="572" 
d="M145 342q-25 -16 -41 -61q-14 -38 -14 -67q0 -65 42 -114t107 -49q117 0 117 95q0 60 -42 99h-42t-114 -16q29 41 49 57q30 25 68 25q54 0 146 1l104 15q-2 -16 -42.5 -47t-59.5 -31h-21q25 -33 25 -69q0 -80 -68.5 -134.5t-155.5 -49.5q-81 5 -137 54q-60 52 -60 127
q0 138 103 215q0 6 -9.5 29t-9.5 51q0 76 59 128q56 50 135 50q35 0 63.5 -29t28.5 -67q0 -22 -16.5 -40t-41.5 -20q-5 0 -7 8q-1 6 0 17q1 15 1 16q0 24 -16.5 42.5t-38.5 18.5q-47 0 -79.5 -34t-32.5 -81q0 -32 28 -56t28 -31q0 -18 -56 -52z" />
    <glyph glyph-name="quotesingle" unicode="'" horiz-adv-x="130" 
d="M139 699l-16 -167h-33l-19 167h68z" />
    <glyph glyph-name="parenleft" unicode="(" horiz-adv-x="203" 
d="M178 -176l-85 -24q-88 253 -88 535q0 92 19 193q26 136 75 176q27 -29 75 -41q-12 -1 -26 -15q-73 -69 -73 -318q0 -124 21 -260q28 -184 82 -246z" />
    <glyph glyph-name="parenright" unicode=")" horiz-adv-x="281" 
d="M194 335q0 -282 -88 -535l-85 24q53 62 82 246q21 136 21 260q0 249 -73 318q-15 14 -26 15q47 12 75 41q49 -40 75 -176q19 -101 19 -193z" />
    <glyph glyph-name="asterisk" unicode="*" horiz-adv-x="407" 
d="M332 481l-28 -44l-89 57l9 -101h-55l9 101l-89 -57l-28 44l95 51l-95 50l28 45l89 -61l-9 105h55l-9 -105l89 61l28 -45l-95 -50z" />
    <glyph glyph-name="plus" unicode="+" horiz-adv-x="467" 
d="M397 255h-137v-152h-59v152h-147v59h147v132h59v-132h137v-59z" />
    <glyph glyph-name="comma" unicode="," horiz-adv-x="248" 
d="M153 65q0 -64 -73 -123q9 51 9 44q0 30 -27 65t-27 37q0 6 65 69q53 -52 53 -92z" />
    <glyph glyph-name="hyphen" unicode="-" horiz-adv-x="480" 
d="M405 316q-1 -16 -42 -47t-60 -31q-58 0 -74.5 -2t-76.5 -2q-27 0 -114 -15q29 40 49 56q31 25 68 25q54 0 146 1z" />
    <glyph glyph-name="hyphen" unicode="&#x2010;" horiz-adv-x="480" 
d="M405 316q-1 -16 -42 -47t-60 -31q-58 0 -74.5 -2t-76.5 -2q-27 0 -114 -15q29 40 49 56q31 25 68 25q54 0 146 1z" />
    <glyph glyph-name="period" unicode="." horiz-adv-x="250" 
d="M149 57q0 -27 -16.5 -47t-40.5 -20q-54 0 -54 64q0 25 15 44t41 19q24 0 41 -20q14 -18 14 -40z" />
    <glyph glyph-name="slash" unicode="/" horiz-adv-x="424" 
d="M404 701l-297 -780h-63l292 780h68z" />
    <glyph glyph-name="zero" unicode="0" 
d="M565 318q0 -127 -87.5 -229.5t-189.5 -102.5q-84 0 -153 81q-72 84 -81 203q-2 26 -2 44q0 110 69.5 209.5t170.5 124.5q10 3 39 3q101 0 171 -115q63 -103 63 -218zM479 286q0 1 -1 9t-1 22q-8 122 -66 196q-55 71 -135 71q-78 0 -114 -79q-28 -61 -28 -156
q0 -102 40 -184q51 -103 144 -103q161 0 161 224z" />
    <glyph glyph-name="one" unicode="1" 
d="M372 662l-15 -169l3 -449l8 -44h-123q0 1 3 22t3 25q0 20 8.5 207.5t8.5 224.5v63q-5 18 -19 54q18 12 123 66z" />
    <glyph glyph-name="two" unicode="2" 
d="M547 77q0 -4 -34 -87q-38 1 -87 5l-356 4q8 81 100 167q29 27 170 131q91 68 96 104q2 15 2 29q0 67 -40 110q-37 40 -86 40q-83 0 -144 -95q-23 57 -23 73q0 35 69.5 65.5t129.5 25.5q79 -8 134 -56q67 -59 67 -158q0 -88 -62 -155q-31 -34 -130 -102q-87 -60 -119 -106
q70 -6 209 -2q37 2 100 17q4 -4 4 -10z" />
    <glyph glyph-name="three" unicode="3" 
d="M515 181q0 -106 -80 -178q-75 -68 -173 -68q-22 0 -83 17q-77 22 -77 46q0 7 34 79q65 -79 159 -79q61 0 100 51q35 45 35 103t-55 99q-52 37 -115 38q-51 0 -58 -3l-6 7q4 20 20 49q42 2 88 31q54 34 64 80v46q2 35 -28.5 68t-63.5 33q-30 0 -67 -24q-40 -27 -56 -63
q-20 49 -20 67q0 25 85 52q71 23 95 23q59 0 105 -44.5t46 -102.5q0 -40 -25 -86q-27 -52 -66 -72q73 -39 104 -73q38 -42 38 -96z" />
    <glyph glyph-name="four" unicode="4" 
d="M557 259l-40 -62h-91l7 -200q-30 -1 -118 0q-4 3 -4 6l23 112l9 79q-15 3 -42 7l-209 -5l-32 40q55 68 138 207q91 153 128 204h124q8 -6 7 -13l-32 -353q2 -5 3 -15q17 -2 82 -1q47 0 47 -6zM346 264l16 315l-204 -315h188z" />
    <glyph glyph-name="five" unicode="5" 
d="M541 191q0 -108 -86 -181q-81 -70 -190 -70q-2 0 -13 1.5t-33.5 2t-76.5 18.5q-66 23 -66 46q0 4 13 36q16 40 20 51q22 -46 76 -73q46 -23 92 -23q72 0 117 43.5t45 110.5q0 73 -42 120q-47 54 -135 54q-81 0 -145 -48q-4 4 -4 12l24 346q67 7 120 0l237 9q12 0 20 -26
q6 -20 6 -35v-17q0 -3 -7 -3q1 0 -45 6q-49 6 -87 8q-62 2 -122 2q-49 0 -49 -72q0 -11 2 -44q1 -28 0 -43q2 -3 0 -41q5 -5 6 -5q11 0 42 11t54 11q101 0 166 -63q61 -60 61 -144z" />
    <glyph glyph-name="six" unicode="6" 
d="M581 254q0 -96 -109 -184q-104 -84 -201 -84q-99 0 -169 73q-66 70 -66 159q0 79 55 163q86 133 263 312q4 4 41 4h75q3 -2 9 -7q-136 -103 -229 -210q-120 -138 -120 -234q0 -74 49 -135q55 -68 142 -68q59 0 109.5 44.5t50.5 95.5q0 3 3 18.5t3 18.5q0 75 -53.5 125
t-136.5 50q-1 0 -75 -4q40 74 128 74q94 0 162.5 -62.5t68.5 -148.5z" />
    <glyph glyph-name="seven" unicode="7" 
d="M513 638q-159 -325 -238 -639q-52 -4 -55 -4q-39 0 -60 1v12q0 -1 54 129q87 204 168 439q-66 7 -67 7q-4 0 -78 -4q-23 -2 -63 -11q-51 -12 -70 -15v10q0 18 41 84q84 -9 121 -9h247z" />
    <glyph glyph-name="eight" unicode="8" 
d="M276 -13q-83 0 -143 49q-63 51 -63 127q0 46 32 91q28 37 94 92q-91 42 -91 127q0 80 91 135q77 47 154 47q61 0 113 -44.5t52 -100.5q0 -41 -29 -74q-7 -9 -77 -73q66 -48 88 -71q50 -49 50 -95q0 -84 -96 -150q-87 -60 -175 -60zM436 477q0 54 -40 94.5t-103 40.5
q-45 0 -81 -29.5t-36 -71.5q0 -41 72 -88q68 -45 113 -45q31 0 55 41q20 34 20 58zM468 168q0 49 -90 104q-82 50 -129 50q-50 0 -82 -49q-26 -40 -26 -78q0 -66 58.5 -114.5t129.5 -48.5q63 0 101.5 39t37.5 97z" />
    <glyph glyph-name="nine" unicode="9" 
d="M571 422q0 -1 -1.5 -9.5t-1.5 -23.5q-11 -92 -84 -200q-22 -34 -151 -197h-122q134 112 191 188q78 104 78 210q0 82 -50 143q-54 66 -140 66q-63 0 -106 -45.5t-52 -120.5q0 -16 -1.5 -25.5t-1.5 -10.5q0 -79 61 -125q53 -40 127 -40q22 0 61 5q2 -1 7 -3
q-43 -77 -121 -77q-80 0 -146 58q-74 63 -72 155q3 26 0 30q20 102 117 180q91 74 180 74q92 0 160 -72t68 -160z" />
    <glyph glyph-name="colon" unicode=":" horiz-adv-x="236" 
d="M149 389q0 -27 -16.5 -46.5t-40.5 -19.5q-54 0 -54 63q0 26 15 45t41 19q24 0 41 -20q14 -18 14 -41zM149 149q0 -27 -16.5 -47t-40.5 -20q-54 0 -54 64q0 25 15 44t41 19q24 0 41 -20q14 -18 14 -40z" />
    <glyph glyph-name="semicolon" unicode=";" horiz-adv-x="241" 
d="M145 389q0 -27 -17 -46.5t-41 -19.5q-54 0 -54 63q0 26 15.5 45t40.5 19t40.5 -19t15.5 -42zM154 85q0 -64 -72 -123q9 51 9 44q0 30 -27 65t-27 37q0 6 65 69q52 -52 52 -92z" />
    <glyph glyph-name="less" unicode="&#x3c;" horiz-adv-x="578" 
d="M501 337l-360 -113l356 -140l-2 -70l-455 187l29 63l430 169z" />
    <glyph glyph-name="equal" unicode="=" horiz-adv-x="468" 
d="M397 285h-343v59h343v-59zM397 132h-343v59h343v-59z" />
    <glyph glyph-name="greater" unicode="&#x3e;" horiz-adv-x="564" 
d="M502 201l-456 -183l-2 70l356 136l-361 117l3 95l431 -172z" />
    <glyph glyph-name="question" unicode="?" horiz-adv-x="385" 
d="M320 523q0 -50 -55 -102q-51 -43 -101 -86q-55 -51 -55 -100q0 -3 3 -17.5t3 -17.5q0 -5 -30.5 -21.5t-36.5 -16.5q-15 20 -15 56q0 39 49 91q45 46 91 91q48 56 48 105q0 36 -31 67t-68 31q-30 0 -52 -16q-15 -12 -53 -55q-9 48 -9 60q0 16 79 38q71 20 91 20
q50 0 96 -39t46 -88zM143 52q0 -20 -15 -36t-36 -16q-22 0 -37.5 15.5t-15.5 32.5q0 20 12 37q16 22 43 22q23 0 36 -17.5t13 -37.5z" />
    <glyph glyph-name="at" unicode="@" horiz-adv-x="639" 
d="M547 241q0 -58 -7 -86q-12 -41 -45.5 -65.5t-90.5 -24.5q-22 0 -37 4q-2 0 -12 18t-10 27q0 2 2 3v129h-33q-33 0 -63 -14q-39 -20 -39 -57q0 -50 68 -50q16 0 51 4l-35 -35q-12 -11 -31 -11q-40 0 -68 17q-35 20 -35 60q0 53 79 88q53 19 106 37v35q0 23 -31 36
q-24 10 -51 10q-9 0 -70 -9q36 46 98 46q35 0 65 -16q38 -21 38 -59v-175q-5 -16 -5 -29q0 -27 23 -27q6 0 12 1q37 8 58 54q18 40 19 94q1 78 -56.5 132.5t-138.5 58.5q-87 4 -151 -54t-68 -144q-5 -88 57 -151.5t152 -68.5q70 -4 129 33l17 -35q-63 -38 -138 -38
q-109 0 -186.5 76.5t-74.5 183.5q3 104 80.5 175.5t182.5 66.5q100 -4 169.5 -73t69.5 -167z" />
    <glyph glyph-name="A" unicode="A" horiz-adv-x="680" 
d="M600 0q-79 -4 -122 0q-49 193 -83 281q-2 6 -23 13l-155 3q-1 11 22.5 29.5t32.5 18.5h76q4 0 12 -2q5 -1 7 0.5t2 9.5q0 13 -29 89q-31 83 -33 94q-1 0 -5 5q-121 -280 -214 -538h-83q-4 0 -4 6q0 4 25 48q30 54 39 72q192 392 192 458q0 29 -16 57q17 6 122 6
q105 -380 237 -650z" />
    <glyph glyph-name="B" unicode="B" horiz-adv-x="529" 
d="M452 209q0 -65 -79.5 -142t-145.5 -77h-97q-54 0 -110 8q-3 1 -3 7l9 53.5t10 79.5q10 242 1 389q-3 41 -9 112q2 1 121 1q14 0 42.5 2.5t29.5 2.5q66 0 116 -28q63 -36 63 -102q0 -69 -87 -140q63 -23 101 -68t38 -98zM368 160q0 81 -53 127q-49 43 -128 43q-31 0 -50 4
l14 30q10 19 22 20q78 5 107 20q41 21 41 78q0 101 -114 101q-42 0 -76 -12l-12 -173v-348h117q53 0 88 22q44 29 44 88z" />
    <glyph glyph-name="C" unicode="C" horiz-adv-x="574" 
d="M563 571q0 -8 -43 -77q-37 47 -95 74q-53 25 -104 25q-110 0 -172 -96q-51 -79 -51 -180q0 -115 68.5 -187t182.5 -72q49 0 88 12q26 8 97 40v-9q0 -63 -95 -92q-60 -19 -123 -19q-126 0 -212.5 82t-86.5 208q0 128 105 247q112 126 253 126q25 0 96 -22q92 -27 92 -60z
" />
    <glyph glyph-name="D" unicode="D" horiz-adv-x="706" 
d="M628 369q0 -32 -2 -46q-28 -138 -138.5 -239.5t-226.5 -93.5l-164 11q5 0 -77 -8q-3 3 -3 9l21 218v242l-18 175h88l140 17q27 0 83 -3q121 -6 209 -90t88 -192zM547 307q0 1 -1.5 10t-1.5 25q-41 241 -283 241q-53 0 -135 -12q-8 -19 -8 -43v-459l165 -11
q111 -8 187.5 62.5t76.5 186.5z" />
    <glyph glyph-name="E" unicode="E" horiz-adv-x="486" 
d="M432 66q-12 -28 -41 -75l-181 8l-196 -3q-3 3 -3 12q0 3 5.5 64.5t5.5 64.5v389l-8 114h357q12 0 23 -6q-10 -23 -35 -71q-40 5 -117 16l-94 2q-36 1 -36 -36v-153l250 11v-9q0 -11 -16 -41.5t-22 -30.5q-3 0 -50 5.5t-50 5.5h-115v-238q0 -37 14 -37h232q2 0 26 3
q28 3 51 5z" />
    <glyph glyph-name="F" unicode="F" horiz-adv-x="409" 
d="M374 643q0 -9 -31 -69q-14 2 -51 7q-33 4 -36 4h-99q-2 0 -16 -2.5t-21 -2.5q-6 -82 -5 -145q0 -12 -1 -24q3 -13 21 -12l217 13q-9 -33 -25 -78q-21 2 -59 5q-33 3 -36 3h-116v-201l17 -141h-101l5 158q6 212 0 372q-1 19 -7.5 60t-6.5 42q0 4 1.5 6t1.5 3h190l154 9
q4 -1 4 -7z" />
    <glyph glyph-name="G" unicode="G" horiz-adv-x="667" 
d="M613 291l-8 -101q-3 -41 -3 -68q0 -19 1.5 -30.5t1.5 -10.5q0 -15 -6 -23q-2 0 -8.5 2.5t-9.5 2.5h-44q-29 0 -98 -38.5t-119 -38.5q-124 0 -216 98q-88 95 -88 214q0 127 85 222q90 100 246 129q38 -2 41 0q50 -6 114 -30q85 -33 85 -67q0 -10 -45 -75q-38 61 -102 93
q-56 28 -116 28q-105 0 -170 -79q-61 -73 -61 -174q0 -114 72 -203q74 -92 174 -92h49q26 0 78.5 25.5t53.5 47.5q3 51 0 85q-2 29 -10 83h103z" />
    <glyph glyph-name="H" unicode="H" horiz-adv-x="656" 
d="M576 637q0 -13 -18 -213v-295q5 -38 17 -123q-3 0 -8 -6h-94q-3 2 -9 7q13 81 16 146l5 136q1 10 -1 23q-3 21 -11 20l-324 -5q-10 0 -17 -7v-206l13 -115h-106l16 186v364l-13 88h103l-13 -120v-92q0 -27 10 -36l304 5q14 -1 35 7v148q-6 30 -9 88q5 3 52 3t52 -3z" />
    <glyph glyph-name="I" unicode="I" horiz-adv-x="210" 
d="M125 633q-9 -64 -23 -211q-8 -112 0 -310l17 -112h-116q17 152 17 179q6 100 6 195q0 89 -6 148q-6 43 -14 116q7 6 39 6q26 0 77 -3q0 -2 1.5 -3t1.5 -5z" />
    <glyph glyph-name="J" unicode="J" horiz-adv-x="249" 
d="M182 637q-17 -88 -20 -130q-11 -135 -11 -243q0 -81 6 -159q4 -55 -46.5 -111t-106.5 -57q45 35 62 91q10 34 13 95l10 197v192l-12 125q19 5 105 0z" />
    <glyph glyph-name="K" unicode="K" horiz-adv-x="578" 
d="M505 0h-131q-41 62 -154 207q-102 131 -102 132q0 2 64 81q71 89 86 108q49 64 77 112q43 4 38 4h46q3 -2 9 -7q-53 -54 -141 -156t-88 -109q0 -19 121 -162q96 -114 175 -199v-11zM123 644l-18 -163v-349l15 -132h-103q-4 2 -4 10q0 3 8 75.5t8 75.5v326l-16 151
q11 6 21 6h89z" />
    <glyph glyph-name="L" unicode="L" horiz-adv-x="432" 
d="M381 58q0 -11 -33 -63l-253 5q-75 2 -80 -2q-7 5 -7 10q0 12 6.5 45t6.5 40v492q0 15 -9 37v17h114q-7 -36 -15 -73q-9 -56 -9 -156v-306q0 -50 28 -50q6 0 13 3l188 2q14 2 47 6q3 -1 3 -7z" />
    <glyph glyph-name="M" unicode="M" horiz-adv-x="883" 
d="M817 1l-125 -2l-1 62q-1 27 -57 228q-35 124 -71 249q-26 -106 -53 -212q-50 -211 -49 -261q0 -27 9 -65l-139 -2q6 14 -1 62q-14 99 -48 243l-58 242l-66 -274q-37 -160 -57 -275l-85 1q104 341 103 369q0 -2 26.5 102.5t25.5 134.5q0 3 -3 16.5t-3 16.5q0 4 1.5 5
t1.5 4q13 1 117 2l120 -534l113 503q3 10 6.5 20.5t15.5 10.5q45 -1 100 -2q4 -88 36 -212q30 -105 60 -211z" />
    <glyph glyph-name="N" unicode="N" horiz-adv-x="652" 
d="M574 638l-12 -218l-1 -416l-85 -1q-33 49 -355 508q-5 -74 -4 -131l4 -261q6 -36 15 -117q-64 -5 -93 -1l18 169l-6 362q0 3 -10.5 48t-10.5 48q0 4 4 7l108 2q93 -143 357 -513l-7 431q-4 24 -10 82q4 2 44 3t44 -2z" />
    <glyph glyph-name="O" unicode="O" horiz-adv-x="760" 
d="M684 322q0 -129 -111.5 -232.5t-241.5 -103.5q-106 0 -194 82q-91 84 -104 205q-2 26 -2 45q0 110 86 209q90 103 219 128q14 3 50 3q128 0 218 -117q80 -103 80 -219zM600 289q0 1 -1 9t-1 22q-11 122 -97 203q-82 77 -186 77q-99 0 -157 -85q-49 -71 -49 -162
q0 -101 65 -196q77 -114 195 -114q109 0 170 68t61 178z" />
    <glyph glyph-name="P" unicode="P" horiz-adv-x="459" 
d="M400 521q0 -63 -89 -138q-85 -70 -141 -70q-11 0 -33 39q79 16 119 39q62 36 62 99q0 53 -45 83q-37 26 -84 26q-44 0 -56 -9.5t-12 -44.5v-422l16 -123q-17 -4 -108 0l12 136v329l-13 122v38q0 4 -2.5 5.5t-2.5 2.5q4 7 8 8t9 0q6 -2 8 -2h43l142 16q62 0 110 -33
q57 -38 57 -101z" />
    <glyph glyph-name="Q" unicode="Q" horiz-adv-x="737" 
d="M660 318q0 -4 -6.5 -42.5t-6.5 -42.5q0 -32 -87 -116q-71 -68 -108 -92l102 -82q0 -6 -4 -10h-107q-46 70 -61 70q-1 0 -35.5 -7.5t-44.5 -7.5q-106 0 -190 78q-88 81 -101 204q-3 23 -3 46q0 123 113 230q110 104 231 104q4 0 23.5 -1t22.5 -1q87 0 178 -111
q86 -105 82 -179q-1 -16 0 -27q2 -14 2 -13zM575 284q0 117 -71 207q-80 102 -207 102q-80 0 -144 -61t-64 -142q0 -3 -1.5 -20t-1.5 -20q0 -108 70 -200q79 -105 195 -105q61 0 113 28q63 34 88 100q20 54 20 58t1.5 27t1.5 26z" />
    <glyph glyph-name="R" unicode="R" horiz-adv-x="577" 
d="M498 2h-130q-136 223 -222 347v10q184 19 184 129q0 47 -36 80.5t-81 33.5q-1 0 -12 -1.5t-30 -1.5q-30 0 -37 -15q-1 -5 -1 -33q0 -3 -4 -55.5t-4 -55.5v-352l15 -88h-108q0 1 -1.5 2.5t-1.5 5.5t8 55t8 54v417l-8 107q12 0 89 1q22 0 69.5 6.5l47.5 6.5q66 0 113 -30
q57 -36 57 -105q0 -46 -54 -103q-42 -44 -104 -81q129 -201 243 -325v-9z" />
    <glyph glyph-name="S" unicode="S" horiz-adv-x="501" 
d="M434 192q0 -80 -98 -147q-86 -59 -157 -59q-45 0 -104 32q-64 35 -64 70q0 4 24 33q35 41 41 48q19 -58 65.5 -94.5t95.5 -36.5q51 0 84 36q30 33 30 73q0 60 -81 105q-75 38 -151 76q-81 52 -81 130q0 60 87 128q81 63 140 63q28 0 91 -28q75 -35 75 -71q0 -10 -54 -74
q-28 54 -75.5 85t-98.5 31q-42 0 -67 -39q-20 -32 -20 -66q0 -58 82 -104q77 -38 153 -76q83 -49 83 -115z" />
    <glyph glyph-name="T" unicode="T" horiz-adv-x="524" 
d="M561 642q-1 -16 -33.5 -37t-51.5 -21h-62q-24 0 -55 -5q-41 -5 -41 -13q0 -3 3 -4q-8 -136 -8 -264q0 -121 8 -201q3 -30 10 -91q-2 -1 -3 -6h-109q-4 4 -4 14l20 246v301q0 9 -7 20l-101 3q-47 -4 -113 -16q56 79 102 79q7 0 15 -2z" />
    <glyph glyph-name="U" unicode="U" horiz-adv-x="611" 
d="M521 226q1 -8 1 -16q0 -85 -113 -159q-102 -65 -183 -65q-105 0 -166 75q-54 67 -54 165v409q13 6 18 6q-5 0 16 -1.5t64 -1.5q4 -3 4 -13l-7.5 -52t-8.5 -79q-3 -73 -8 -172q3 -3 0 -117q9 -78 74 -125q58 -41 129 -41q169 0 169 250v349q29 -1 65 0v-412z" />
    <glyph glyph-name="V" unicode="V" horiz-adv-x="598" 
d="M556 644q-216 -531 -216 -607q0 -4 5 -34q-10 -2 -21 -4q-28 -3 -86 1q-17 1 -23 34l-8 54q-12 50 -45 148q-14 33 -31 84q-15 42 -74 188q-50 124 -50 132q0 4 4 7q93 0 123 -3q11 -109 66 -275q46 -138 91 -277q49 137 98 273q60 168 81 279h86z" />
    <glyph glyph-name="W" unicode="W" horiz-adv-x="873" 
d="M827 642q-44 -116 -105 -298q-87 -259 -86 -299l1 -43l-113 -2q-19 96 -56 255q-50 215 -59 254l-54 -204q-51 -200 -50 -256v-47l-118 -2q4 10 -1 45q-36 247 -180 592l116 2q44 -174 131 -528q1 0 4 -5l39 158q21 77 42 153q25 93 27 156q0 17 -7 64q12 4 111 2
q11 -106 52 -267l68 -266q76 241 120 399l14 80q12 59 31 59q5 -1 73 -2z" />
    <glyph glyph-name="X" unicode="X" horiz-adv-x="602" 
d="M521 -5h-122l-148 293q-24 -43 -91 -172l-30 -66q-26 -52 -34 -52q5 0 -16.5 1.5t-69.5 1.5q6 11 118 178q89 135 89 152t-83 147q-53 80 -106 161l106 3q31 -43 70 -119q31 -66 63 -131q48 88 135 247l79 -3l-104 -154q-80 -120 -80 -131q0 -17 96 -163q64 -96 128 -193
z" />
    <glyph glyph-name="Y" unicode="Y" horiz-adv-x="531" 
d="M535 635q-61 -89 -123 -177q-69 -105 -98 -179v-201q0 -12 4.5 -40t4.5 -29q0 -6 -4 -8.5t-111 -2.5q-2 7 2 21.5t4 16t6.5 32.5t7.5 47l5 153q-136 240 -228 369q38 7 111 1l163 -296l172 293q47 1 84 0z" />
    <glyph glyph-name="Z" unicode="Z" horiz-adv-x="520" 
d="M473 639q-51 -100 -156.5 -290.5t-152.5 -282.5q4 -7 15 -7h159q-3 0 105 16q4 0 4 -7q0 -14 -30 -73l-158 6h-228v9q0 11 122 230q144 258 182 334q-11 5 -21 5h-103l-140 -19q8 28 27 79h375z" />
    <glyph glyph-name="bracketleft" unicode="[" horiz-adv-x="210" 
d="M163 -133l-98 -1l-1 836l89 1l1 -78l-39 -1l-1 -679h49v-78z" />
    <glyph glyph-name="backslash" unicode="\" horiz-adv-x="443" 
d="M409 -79h-78l-292 780h78z" />
    <glyph glyph-name="bracketright" unicode="]" horiz-adv-x="256" 
d="M163 702l-1 -836l-98 1v78h49l-1 679l-39 1l2 78z" />
    <glyph glyph-name="asciicircum" unicode="^" horiz-adv-x="501" 
d="M436 580l-16 -26l-163 81l-162 -78l-18 26l155 101h51z" />
    <glyph glyph-name="underscore" unicode="_" horiz-adv-x="927" 
d="M993 -126h-928v53h928v-53z" />
    <glyph glyph-name="grave" unicode="`" horiz-adv-x="289" 
d="M215 497l-19 -27l-173 56l38 56z" />
    <glyph glyph-name="a" unicode="a" horiz-adv-x="542" 
d="M173 250q20 18 32 18h60q-5 21 -17 53q-11 27 -22 53q-27 -63 -53 -124zM348 1l-28 105q-17 58 -35 102q-3 3 -127 6q-43 -106 -82 -212h-68q-12 0 -12 14q0 -5 94 187t94 230q0 17 -17 45q26 9 106 9h5q80 -279 182 -486q-44 -2 -68 -2q-23 0 -44 2z" />
    <glyph glyph-name="b" unicode="b" horiz-adv-x="394" 
d="M171 -8h-71q-58 0 -81 7q-11 3 -11 14q0 16 6.5 48.5t7.5 47.5q4 97 4 158q0 85 -11 210q13 4 32 4q13 1 34 0q26 -1 33 -1q8 0 25.5 2t26.5 2q54 0 94 -24q46 -29 46 -80q0 -49 -54 -97q92 -42 92 -123q0 -52 -61 -110t-112 -58zM102 267q7 14 10 18q8 9 19 10
q60 9 66 11q32 12 32 51q0 62 -73 62q-28 0 -46 -5l-8 -118v-29zM102 241v-186h75q86 0 86 70q0 53 -34 82.5t-88 29.5q-22 0 -39 4z" />
    <glyph glyph-name="c" unicode="c" horiz-adv-x="476" 
d="M387 348q-63 79 -147 79q-71 0 -115 -60q-38 -54 -38 -129q0 -79 47.5 -128t126.5 -49q37 0 75 13q15 5 70 30v-22q0 -45 -65 -70q-50 -20 -104 -20q-96 0 -162.5 62t-66.5 157q0 102 85 190.5t187 88.5q28 0 84 -22q63 -25 63 -47q0 -9 -40 -73z" />
    <glyph glyph-name="d" unicode="d" horiz-adv-x="560" 
d="M208 -8q-20 0 -58 4.5t-57 4.5q-7 0 -77 -7q-10 8 -9 18l16 156v174l-14 136q38 -2 95 5q65 7 89 7q21 0 55 -2q93 -5 159 -66q70 -64 70 -155q0 -94 -87.5 -184.5t-181.5 -90.5zM197 420q-31 0 -92 -8q-4 -13 -4 -22v-322q119 -7 126 -7q74 0 122 48t48 122q0 7 -2 24
q-10 82 -64 125q-51 40 -134 40z" />
    <glyph glyph-name="e" unicode="e" horiz-adv-x="393" 
d="M294 -7q-137 10 -282 4q-9 7 -9 18q0 16 4 47t4 46v280l-6 92h270q11 0 30 -10q-11 -22 -34 -66q-58 12 -158 14q-16 1 -16 -16v-100l181 8v-17q0 -9 -14.5 -35t-22.5 -26q-12 0 -36.5 4t-36.5 4h-74v-179h169q13 0 37.5 3t34.5 3q-16 -35 -41 -74z" />
    <glyph glyph-name="f" unicode="f" horiz-adv-x="359" 
d="M26 481h135l112 6q12 1 12 -14q0 -9 -26 -60q-7 1 -34 5q-22 3 -35 3h-71q4 0 -18 -3q-4 -38 -4 -106l1 -4q1 -1 4 -1l171 10q-10 -37 -24 -77q-8 1 -38 4q-24 2 -38 2h-74v-134l14 -109q-12 -4 -23 -4h-36q-25 1 -36 1q6 183 6 232v49q0 70 -2 110q0 11 -5 36t-5 38
q0 7 15 23z" />
    <glyph glyph-name="g" unicode="g" horiz-adv-x="540" 
d="M457 98q0 -5 1 -15t1 -15q0 -14 -9 -27q-4 0 -10 2t-9 2h-32q-19 0 -70.5 -28t-88.5 -28q-93 0 -163 71.5t-70 163.5q0 85 50 153.5t129 99.5q52 20 73 20q5 0 13 -1h13l-1 -1q38 -2 94 -24q68 -26 68 -54q0 -10 -44 -72q-60 96 -159 96q-70 0 -114.5 -55.5t-44.5 -127.5
q0 -75 47 -136q51 -67 123 -67h36q14 0 50 16t37 27t1 33q0 27 -10 98h97q-8 -111 -8 -131z" />
    <glyph glyph-name="h" unicode="h" horiz-adv-x="535" 
d="M424 0h-76q-5 4 -13 11q5 33 17 228q-118 -1 -240 -4v-143l11 -93h-99l12 145v260l-11 73h98l-11 -96v-70q0 -7 2 -12l218 4q5 0 16 1v100q0 12 -3.5 36t-3.5 34q10 5 47 5q39 0 49 -5q-13 -108 -13 -160v-210q0 -16 14 -98q-4 -1 -7 -1.5t-7 -4.5z" />
    <glyph glyph-name="i" unicode="i" horiz-adv-x="263" 
d="M147 217q0 -110 16 -217h-100q16 155 16 279q0 46 -14 204q5 0 31 4t40 4q30 0 30 -16q0 -1 -6 -44q-13 -101 -13 -214z" />
    <glyph glyph-name="j" unicode="j" horiz-adv-x="300" 
d="M198 198q0 -19 2 -59t2 -60q0 -52 -46 -89t-98 -38q66 54 70 145q7 142 7 143v138l-9 97q16 5 37 5q15 0 58 -3q-23 -127 -23 -279z" />
    <glyph glyph-name="k" unicode="k" horiz-adv-x="455" 
d="M92 356v-84l38 46q47 57 64 79q34 45 57 83l34 3h37q6 -5 16 -15q-60 -61 -170 -190q1 -14 98 -125q72 -83 118 -131v-22h-111q-72 95 -181 239v-134l12 -105h-90q-9 6 -9 17q0 18 6 54.5t6 54.5v233l-13 115q16 9 26 9h76z" />
    <glyph glyph-name="l" unicode="l" horiz-adv-x="349" 
d="M263 -4q-219 5 -226 5q-15 0 -21 -6q-15 12 -15 21q0 10 5 30t5 30v355q0 9 -7 24v24h103q-4 -22 -12 -68q-7 -40 -7 -107v-224q0 -21 13 -21q26 0 71 1q54 2 72 2q6 0 17.5 2t18.5 2q11 0 11 -15q0 -10 -28 -55z" />
    <glyph glyph-name="m" unicode="m" horiz-adv-x="632" 
d="M506 -1l-1 54q-1 24 -84 307q-66 -252 -66 -304q0 -16 9 -56l-129 -2q7 15 7 21q0 52 -28 169l-44 172q-33 -135 -44 -181q-24 -102 -38 -182l-84 1q32 105 55 182q11 44 33 131q29 109 29 133q0 3 -1.5 10t-1.5 11q0 17 47 21h58l81 -351l74 322q6 28 26 28q34 0 83 -1
q6 -146 135 -483z" />
    <glyph glyph-name="n" unicode="n" horiz-adv-x="525" 
d="M426 3l-77 -1q-44 64 -246 346q-2 -57 -2 -64l3 -189q5 -31 12 -92q-37 -3 -55 -3q-16 0 -35 2l14 130q2 19 1 51q-2 45 -2 51q0 19 1 56.5t1 56.5q0 21 -10 60t-10 56q0 8 6 11l2 2l89 2q74 -112 245 -348l-5 279q-3 22 -7 64q11 6 47 6q28 0 38 -4q-15 -164 -10 -472z
" />
    <glyph glyph-name="o" unicode="o" horiz-adv-x="607" 
d="M248 -10q-95 0 -163 74.5t-68 170.5t82.5 178t178.5 82q98 0 169 -77t71 -176q0 -98 -85.5 -175t-184.5 -77zM237 433q-65 0 -105 -53q-37 -49 -37 -116q0 -78 51 -143q55 -70 130 -70t117.5 45.5t42.5 121.5q0 85 -57 148q-59 67 -142 67z" />
    <glyph glyph-name="p" unicode="p" horiz-adv-x="376" 
d="M103 273q123 25 123 90q0 31 -26 50t-58 19q-26 0 -31 -3q-8 -4 -8 -27v-129zM129 225q-13 0 -26 21v-147l12 -97q-16 -4 -38 -4q-16 0 -62 2l11 108v236q0 16 -6 57q-6 36 -4 56q-4 4 -4 11q6 12 13 13q-6 -1 16 -1h29q17 0 51.5 5.5t51.5 5.5q51 0 89 -27
q43 -30 43 -79q0 -47 -64.5 -103.5t-111.5 -56.5z" />
    <glyph glyph-name="q" unicode="q" horiz-adv-x="589" 
d="M354 26l68 -55q1 -12 -9 -21h-88q-33 51 -39 51q-9 0 -29 -6t-30 -6q-94 0 -160 73t-66 168q0 97 83 177.5t180 80.5q6 0 17 -1t16 -1q70 0 137 -80q64 -77 64 -148q0 -3 1 -10t1 -10q0 -12 -4 -31q-5 -24 -5 -30q-6 -50 -137 -151zM223 427q-68 0 -108 -51
q-37 -47 -37 -115q0 -79 53 -143q55 -68 132 -68q71 0 112.5 46t41.5 117q0 86 -53 148q-57 66 -141 66z" />
    <glyph glyph-name="r" unicode="r" horiz-adv-x="408" 
d="M106 277q130 15 130 85q0 29 -23 50.5t-52 21.5q-5 0 -15 -1t-16 -1q-15 0 -17 -6q-1 -2 -1 -17.5t-3 -42t-3 -39.5v-50zM30 0l1 -7q-15 14 -15 23q0 13 6 39t6 39v300l-6 87q25 0 75 1q14 0 42.5 4.5t43.5 4.5q54 0 91 -25q42 -29 42 -81q0 -66 -111 -136
q90 -138 173 -227v-21h-110q-99 161 -162 252v-179l14 -74h-90z" />
    <glyph glyph-name="s" unicode="s" horiz-adv-x="412" 
d="M135 -11q-35 0 -80 25q-52 27 -52 59q0 1 61 79q14 -42 41 -71q33 -34 73 -34q29 0 50.5 20t21.5 48q0 39 -59 70q-54 28 -109 56q-59 39 -59 98q0 47 65 99q62 49 110 49q28 0 77 -27q53 -29 53 -55q0 -10 -51 -70q-48 91 -124 91q-24 0 -39 -21t-15 -45q0 -37 60 -69
q56 -27 111 -55q60 -37 60 -89q0 -58 -69 -109q-65 -49 -126 -49z" />
    <glyph glyph-name="t" unicode="t" horiz-adv-x="501" 
d="M250 414q-6 -98 -6 -191q0 -77 14 -212l-4 -11h-92q-9 7 -9 17q0 30 7.5 90.5t7.5 90.5q0 218 -2 221l-67 1q-19 0 -106 -15q59 80 97 80q63 0 169 -1q126 -2 168 -2q-2 -21 -27 -41.5t-46 -20.5q-82 0 -104 -6z" />
    <glyph glyph-name="u" unicode="u" horiz-adv-x="492" 
d="M170 -11q-77 0 -125 54q-46 51 -46 129v301q16 8 24 8q10 0 31 -1t31 -1q9 -8 9 -19q0 -17 -6 -48q-5 -34 -6 -47q-6 -101 -6 -124v-84q3 -47 48 -80q41 -30 91 -30q113 0 113 171v260h27.5h24.5q4 0 16 4l1 -322q0 -63 -84 -119q-76 -52 -143 -52z" />
    <glyph glyph-name="v" unicode="v" horiz-adv-x="422" 
d="M264 36q0 -2 5 -33q-49 -5 -48 -5q-29 0 -42 2q-19 3 -25 29q-4 21 -7 42q-13 59 -32 105q-114 278 -114 295q0 6 8 14h5q70 0 98 -3q9 -80 44 -189q31 -92 63 -185l68 186q38 109 54 189h86q-163 -394 -163 -447z" />
    <glyph glyph-name="w" unicode="w" 
d="M485 1l-102 -1q-7 36 -77 335q-66 -236 -66 -290v-43l-112 -2q6 13 6 23q0 6 -2 18q-26 177 -137 437l108 2q31 -119 91 -357l20 79l32 110q18 67 18 112q0 12 -5 50q17 6 84 5h17q9 -76 34 -180q24 -88 47 -177q28 85 78 254q2 17 8 52q13 55 34 55h34q23 -1 35 -1
q-147 -384 -146 -440z" />
    <glyph glyph-name="x" unicode="x" horiz-adv-x="485" 
d="M291 -3l-103 199q-27 -50 -57 -108q-12 -25 -25 -51q-20 -39 -31 -39q-13 0 -40 1.5t-40 1.5q5 7 88 132q71 107 71 115q0 9 -65 110q-40 60 -80 121l99 3q32 -44 93 -169q31 56 92 167l82 -3q-143 -213 -143 -215q0 -8 77 -125q48 -70 95 -140h-113z" />
    <glyph glyph-name="y" unicode="y" horiz-adv-x="496" 
d="M244 209v-143q0 -9 3.5 -25.5t3.5 -24.5q0 -14 -16 -17q-2 -1 -27 -1l-59 1q-2 8 -2 14q0 1 10 47q4 23 8 140q-97 170 -174 276q37 5 45 5q17 0 60 -3l113 -203l120 202h25q20 0 60 -1l-92 -130q-53 -77 -78 -137z" />
    <glyph glyph-name="z" unicode="z" horiz-adv-x="436" 
d="M135 56l-2 6h3h116q13 0 37.5 5.5t37.5 5.5t13 -14q0 -12 -25 -63q-121 7 -297 4v17q0 8 99 187q116 208 118 212l-25 1q-42 1 -167 -16q8 27 28 79h295q-78 -141 -231 -424z" />
    <glyph glyph-name="braceleft" unicode="{" horiz-adv-x="290" 
d="M285 637q-11 2 -29 -7q-75 -41 -125 -300l-45 -51l54 -57q24 -95 47 -167q55 -174 97 -205l-78 -42q-48 78 -130 411l-57 60l42 56q24 95 48 166q60 171 114 195q19 -35 62 -59z" />
    <glyph glyph-name="bar" unicode="|" horiz-adv-x="259" 
d="M165 -299h-78v1000h78v-1000z" />
    <glyph glyph-name="braceright" unicode="}" horiz-adv-x="360" 
d="M285 279l-57 -60q-24 -97 -46 -174q-52 -184 -84 -237l-78 42q62 47 144 372l54 57l-45 51q-15 76 -32 134q-43 139 -93 166q-18 9 -29 7q43 24 62 59q81 -36 162 -361z" />
    <glyph glyph-name="asciitilde" unicode="~" horiz-adv-x="663" 
d="M565 302q4 -7 4 -17q0 -20 -12 -45q-41 -17 -126 -44q-16 -4 -32 -4q-28 0 -84.5 20.5t-94.5 17.5q-34 -2 -81 -19q-51 -17 -77 -20q8 22 27 61q152 46 159 46q29 0 88 -22q54 -21 92 -17q52 5 137 43z" />
    <glyph glyph-name="uni00A0" unicode="&#xa0;" horiz-adv-x="262" 
 />
    <glyph glyph-name="exclamdown" unicode="&#xa1;" horiz-adv-x="203" 
d="M0 -96q0 37 28 154v231q0 12 -4 36.5t-4 25.5q0 11 3 13.5t16 2.5q36 2 56 0q10 -1 21 -3q0 -1 1.5 -3.5t1.5 -6.5t-7 -44t-7 -63v-216l23 -130q-5 -5 -6 -8h-118q-4 5 -4 11zM9 486q0 9 11 27q14 22 31 22h34q15 0 26 -19.5t11 -36.5t-18 -32.5t-37 -15.5
q-24 0 -41 18.5t-17 36.5z" />
    <glyph glyph-name="cent" unicode="&#xa2;" horiz-adv-x="453" 
d="M385 396q0 -4 -40 -61q-23 21 -68 57l-30 -338v0q27 0 64.5 12.5t60.5 30.5q-34 -99 -131 -109l-4 -45h-56l4 47q-73 13 -122 73t-49 136q0 71 66 154q68 87 147 105l4 50h56l-4 -50q102 -22 102 -62zM222 409q-66 -1 -108 -58q-38 -49 -38 -109q0 -61 31 -111t85 -68z
" />
    <glyph glyph-name="sterling" unicode="&#xa3;" horiz-adv-x="447" 
d="M381 53q-4 -17 -15 -33t-21 -31l-250 6q-75 2 -81 -2q-3 3 -6 3l3 1q-3 3 -3 7l22 183q-1 142 2 268q1 43 34 101q40 68 92 87q67 24 140 -41q40 -36 40 -45q0 -3 -2 -6q-5 -9 -58 -26q-8 20 -16 39q-7 16 -20 24q-21 13 -43 13q-38 0 -69 -36q-27 -32 -26 -57
q2 -55 -3 -208l94 1l104 15q-2 -16 -42.5 -47t-59.5 -31q-54 0 -69 -1q-23 -2 -29 -3q0 -43 2 -80l6 -122q18 6 37 12l187 10q16 4 50 49q4 -32 0 -50z" />
    <glyph glyph-name="currency" unicode="&#xa4;" horiz-adv-x="532" 
d="M469 416q0 -6 -33 -58q-27 35 -71 56q-40 18 -78 18q-101 0 -146 -103h280l-19 -41h-274q-6 -22 -7 -44h259l-19 -40h-240q7 -78 57 -125.5t130 -47.5q37 0 66 9q20 6 73 30v-7q0 -43 -63 -66q-46 -17 -100 -17q-95 0 -160 61.5t-65 155.5v7h-51l19 40h38q5 22 14 44h-30
l19 41h31q38 64 96 104q64 44 133 44q18 0 72 -16q69 -21 69 -45z" />
    <glyph glyph-name="yen" unicode="&#xa5;" horiz-adv-x="573" 
d="M570 635q-51 -73 -101 -146q-60 -87 -92 -148h103v-59h-130l-1 -3v-91h131v-59h-131v-51q0 -12 4.5 -40t4.5 -29q0 -6 -3 -9h-105q-1 2 -1 35q0 2 6.5 33t7.5 47v14h-127v59h129l3 80l-8 14h-124v59h90q-103 181 -186 296q38 7 111 1l163 -296l172 293q47 1 84 0z" />
    <glyph glyph-name="section" unicode="&#xa7;" horiz-adv-x="784" 
d="M684 1h-634v634h634v-634zM643 42v554h-554v-554h554z" />
    <glyph glyph-name="dieresis" unicode="&#xa8;" horiz-adv-x="347" 
d="M266 528q0 -21 -13.5 -37t-32.5 -16q-43 0 -43 51q0 20 12 35t33 15q19 0 31.5 -15t12.5 -33zM138 528q0 -21 -13.5 -37t-32.5 -16q-43 0 -43 51q0 20 12 35t33 15q19 0 31.5 -15t12.5 -33z" />
    <glyph glyph-name="copyright" unicode="&#xa9;" horiz-adv-x="596" 
d="M398 335q0 -4 -19 -34q-34 43 -87 43q-49 0 -76 -42q-22 -34 -22 -79q0 -51 30 -82.5t80 -31.5q31 0 81 23v-4q0 -25 -36 -39q-27 -10 -59 -10q-56 0 -94 36.5t-38 91.5q0 56 46 108q50 56 111 56q11 0 43 -10q40 -12 40 -26zM502 222q0 -88 -62 -150t-150 -62t-150 62
t-62 150t62 150t150 62t150 -62t62 -150zM467 222q0 73 -52 125t-125 52t-125 -52t-52 -125t52 -125t125 -52t125 52t52 125z" />
    <glyph glyph-name="guillemotleft" unicode="&#xab;" horiz-adv-x="449" 
d="M192 338l-121 -111l119 -139v-69l-153 185l10 62l144 167zM358 338l-120 -111l119 -139l-1 -69l-152 185l9 62l145 167v-95z" />
    <glyph glyph-name="uni00AD" unicode="&#xad;" horiz-adv-x="502" 
d="M397 219h-343v59h343v-59z" />
    <glyph glyph-name="uni00AD" unicode="&#x2212;" horiz-adv-x="502" 
d="M397 219h-343v59h343v-59z" />
    <glyph glyph-name="registered" unicode="&#xae;" horiz-adv-x="481" 
d="M331 414h-44q-46 75 -74 117v3q61 7 61 44q0 15 -12 26.5t-27 11.5l-4 -1h-10q-13 0 -13 -16q0 -1 -1.5 -18.5t-1.5 -19.5v-117l6 -30h-37q-1 2 -1 3t3 18t3 18v140l-3 36h30q7 0 23 2.5l16 2.5q57 0 57 -46q0 -29 -53 -61q43 -68 82 -109v-4zM411 521q0 -73 -52 -125.5
t-126 -52.5t-126 52.5t-52 125.5q0 74 52 126.5t126 52.5t126 -52.5t52 -126.5zM381 521q0 62 -43.5 105.5t-104.5 43.5t-104.5 -43.5t-43.5 -105.5q0 -61 43.5 -104.5t104.5 -43.5t104.5 43.5t43.5 104.5z" />
    <glyph glyph-name="degree" unicode="&#xb0;" horiz-adv-x="382" 
d="M306 553q0 -53 -45.5 -96t-99.5 -43q-49 0 -82.5 40t-33.5 90q0 45 44.5 92t95.5 47q53 0 88 -42q33 -38 33 -88zM269 526q0 48 -28 85q-33 42 -85 42q-35 0 -55.5 -25t-20.5 -59q0 -49 31 -87q33 -41 81 -41q35 0 57 26q20 23 20 59z" />
    <glyph glyph-name="plusminus" unicode="&#xb1;" horiz-adv-x="478" 
d="M397 255h-137v-122h-59v122h-147v59h147v132h59v-132h137v-59zM397 56h-343v59h343v-59z" />
    <glyph glyph-name="acute" unicode="&#xb4;" horiz-adv-x="288" 
d="M215 526l-173 -56l-19 27l154 85z" />
    <glyph glyph-name="paragraph" unicode="&#xb6;" horiz-adv-x="645" 
d="M622 571q0 -8 -43 -77q-37 47 -95 74q-53 25 -104 25q-135 0 -194 -138h372l-25 -54h-365q-8 -29 -10 -59h345l-25 -54h-320q9 -104 76.5 -167t173.5 -63q49 0 88 12q26 8 97 40v-9q0 -63 -95 -92q-60 -19 -123 -19q-126 0 -212.5 82t-86.5 208v8h-68l25 54h50
q7 29 19 59h-39l25 54h41q50 86 128 139q85 59 177 59q25 0 96 -22q92 -27 92 -60z" />
    <glyph glyph-name="periodcentered" unicode="&#xb7;" horiz-adv-x="255" 
d="M152 246q0 -27 -16.5 -47t-40.5 -20q-54 0 -54 64q0 25 15 44t41 19q24 0 41 -20q14 -18 14 -40z" />
    <glyph glyph-name="periodcentered" unicode="&#x2219;" horiz-adv-x="255" 
d="M152 246q0 -27 -16.5 -47t-40.5 -20q-54 0 -54 64q0 25 15 44t41 19q24 0 41 -20q14 -18 14 -40z" />
    <glyph glyph-name="cedilla" unicode="&#xb8;" horiz-adv-x="186" 
d="M199 -135q0 -39 -28 -62q-24 -20 -59 -20q-39 0 -68 70h39q9 -36 29 -36q17 0 32.5 14t15.5 30q0 20 -65 73l5 74h48q-5 0 -5 -56q56 -35 56 -87z" />
    <glyph glyph-name="guillemotright" unicode="&#xbb;" horiz-adv-x="442" 
d="M197 338l121 -111l-119 -139v-69l153 185l-10 62l-144 167zM31 338l120 -111l-119 -139l1 -69l152 185l-9 62l-145 167v-95z" />
    <glyph glyph-name="questiondown" unicode="&#xbf;" horiz-adv-x="377" 
d="M0 24q0 50 55 102q50 43 101 86q55 52 55 101q0 3 -3 17.5t-3 17.5q0 4 30.5 20.5t36.5 17.5q15 -21 15 -56q0 -40 -49 -92l-91 -91q-49 -56 -49 -104q0 -37 31.5 -67.5t68.5 -30.5q30 0 52 16q15 11 53 54q9 -48 9 -60q0 -15 -79 -38q-71 -19 -91 -19q-50 0 -96 38.5
t-46 87.5zM177 495q0 20 15 36t36 16q22 0 37.5 -15.5t15.5 -32.5q0 -19 -13 -37q-15 -22 -42 -22q-23 0 -37 19q-12 16 -12 36z" />
    <glyph glyph-name="Agrave" unicode="&#xc0;" horiz-adv-x="674" 
d="M601 0q-79 -4 -121 0q-49 178 -83 259q-3 5 -23 12l-156 2q0 11 23.5 28t32.5 17h76q4 0 12 -1q5 -1 6 0q2 1 2 9q0 11 -28 82q-31 76 -34 86q-1 0 -4 5q-122 -259 -214 -497h-83q-4 1 -4 6q0 4 25 44q30 50 39 67q192 361 192 423q0 26 -16 51q17 7 121 6
q106 -350 237 -599zM380 637l-18 -23l-175 47l38 47z" />
    <glyph glyph-name="Aacute" unicode="&#xc1;" horiz-adv-x="674" 
d="M601 0q-79 -4 -121 0q-49 179 -83 261q-3 6 -23 12l-156 3q0 10 23.5 27.5t32.5 17.5h76q4 0 12 -2q5 -1 6 0q2 2 2 10q0 11 -28 82q-31 77 -34 87q-1 0 -4 5q-122 -261 -214 -501h-83q-4 1 -4 7q0 3 25 44q30 50 39 67q192 364 192 426q0 27 -16 52q17 7 121 6
q106 -353 237 -604zM390 651l-172 -49l-18 24l153 75z" />
    <glyph glyph-name="Acircumflex" unicode="&#xc2;" horiz-adv-x="681" 
d="M601 0q-79 -4 -121 0q-49 182 -83 265q-3 5 -23 12l-156 2q0 11 23.5 28.5t32.5 17.5h76q4 0 12 -1q5 -2 6 0q2 1 2 9q0 12 -28 84q-31 77 -34 88q-1 0 -4 5q-122 -264 -214 -508h-83q-4 1 -4 7q0 3 25 44q30 52 39 68q192 370 192 432q0 27 -16 53q17 7 121 6
q106 -358 237 -612zM443 632l-17 -26l-109 49l-116 -49l-17 26l108 72h52z" />
    <glyph glyph-name="Atilde" unicode="&#xc3;" horiz-adv-x="680" 
d="M601 0q-79 -4 -121 0q-49 179 -83 260q-3 6 -23 12l-156 3q0 10 23.5 27.5t32.5 17.5h76q4 0 12 -2q5 -1 6 0q2 2 2 9q0 12 -28 83q-31 76 -34 87q-1 0 -4 4q-122 -259 -214 -499h-83q-4 1 -4 7q0 3 25 43q30 51 39 67q192 364 192 425q0 27 -16 52q17 7 121 6
q106 -352 237 -602zM452 692q2 -5 2 -12q0 -12 -7 -27q-22 -13 -69 -33q-9 -3 -18 -3q-16 0 -47 15t-52 13q-20 -1 -47 -14t-41 -15q5 17 15 38q84 35 88 35q17 0 48 -16.5t52 -13.5q30 5 76 33z" />
    <glyph glyph-name="Adieresis" unicode="&#xc4;" horiz-adv-x="679" 
d="M600 0q-79 -4 -121 0q-49 176 -83 256q-2 5 -22 11l-155 3q-1 10 22.5 27.5t32.5 17.5h75q5 0 12 -2q5 -1 7 0q2 2 2 9q0 11 -29 81q-30 75 -33 85q-1 0 -4 5q-121 -255 -213 -491h-83q-3 1 -3 6q0 4 24 44q30 49 39 65q191 358 191 418q0 26 -16 51q17 7 121 6
q105 -346 236 -592zM410 654q0 -22 -13.5 -37.5t-32.5 -15.5q-43 0 -43 50q0 21 12 36t32 15t32.5 -15t12.5 -33zM282 654q0 -22 -13.5 -37.5t-32.5 -15.5q-43 0 -43 50q0 21 12 36t32 15t32.5 -15t12.5 -33z" />
    <glyph glyph-name="Aring" unicode="&#xc5;" horiz-adv-x="680" 
d="M602 0q-79 -4 -122 0q-48 167 -83 244q-2 5 -23 11l-156 3q-1 9 23 25.5t33 16.5h76q4 0 12 -2q5 -1 7 0q2 2 2 9q0 11 -29 77q-31 72 -34 81q-1 0 -4 5q-122 -244 -215 -468h-84q-3 0 -3 6q0 3 25 41q30 47 39 63q193 340 193 398q0 25 -17 49q18 6 123 5
q106 -330 237 -564zM379 640q0 -24 -27.5 -44t-59.5 -20q-30 0 -50.5 18.5t-20.5 41.5q0 21 27 42.5t58 21.5q32 0 52.5 -18.5t20.5 -41.5zM357 628q0 22 -17 39q-20 19 -52 19q-46 0 -46 -38q0 -23 19.5 -41t48.5 -18q47 0 47 39z" />
    <glyph glyph-name="Ccedilla" unicode="&#xc7;" horiz-adv-x="590" 
d="M580 571q0 -8 -43 -77q-37 47 -95 74q-53 25 -104 25q-110 0 -172 -96q-51 -79 -51 -180q0 -115 68.5 -187t182.5 -72q49 0 88 12q26 8 97 40v-9q0 -63 -95 -92q-60 -19 -123 -19q-126 0 -212.5 82t-86.5 208q0 128 105 247q112 126 253 126q25 0 96 -22q92 -27 92 -60z
M413 -118q0 -39 -28 -62q-24 -20 -59 -20q-39 0 -68 70h39q9 -36 29 -36q17 0 32.5 14t15.5 30q0 20 -65 73l5 74h48q-5 0 -5 -56q56 -35 56 -87z" />
    <glyph glyph-name="Egrave" unicode="&#xc8;" horiz-adv-x="495" 
d="M440 59q-12 -25 -41 -68l-179 7l-193 -2q-4 3 -4 11q0 3 6 59t6 59v357l-8 105h352q12 0 24 -5q-11 -22 -36 -66q-39 5 -115 14l-92 3q-36 1 -36 -34v-140l247 10v-8q0 -10 -16 -38t-21 -28q-4 0 -50 5t-50 5h-113v-219q0 -34 13 -34h229q2 0 28 3t49 4zM305 626l-18 -26
l-174 53l38 53z" />
    <glyph glyph-name="Eacute" unicode="&#xc9;" horiz-adv-x="496" 
d="M441 59q-12 -25 -41 -68l-180 7l-194 -2q-4 3 -4 11q0 3 6 58.5t6 59.5v355l-8 104h354q12 0 23 -5q-10 -22 -35 -66q-39 5 -116 15l-93 2q-36 1 -36 -33v-140l249 10v-8q0 -10 -16.5 -37.5t-21.5 -27.5q-3 0 -49.5 5t-50.5 5h-114v-218q0 -34 14 -34h230q2 0 28 3t49 4z
M320 653l-171 -57l-17 28l150 86z" />
    <glyph glyph-name="Ecircumflex" unicode="&#xca;" horiz-adv-x="497" 
d="M442 60q-12 -25 -41 -69l-181 7l-195 -2q-4 3 -4 11q0 3 6 60t6 60v362l-9 106h357q13 0 24 -6q-11 -21 -36 -66q-40 5 -117 15l-93 2q-36 1 -36 -34v-142l250 10v-8q0 -10 -16.5 -38.5t-21.5 -28.5q-4 0 -50.5 5t-50.5 5h-114v-222q0 -34 13 -34h232q2 0 28.5 3t48.5 4z
M356 634l-16 -26l-109 49l-116 -49l-17 26l108 72h51z" />
    <glyph glyph-name="Edieresis" unicode="&#xcb;" horiz-adv-x="488" 
d="M441 61q-12 -26 -41 -70l-180 7l-194 -2q-4 3 -4 11q0 3 6 60t6 60v363l-8 107h354q12 0 23 -6q-10 -21 -35 -67q-39 5 -116 15l-93 3q-36 1 -36 -34v-143l249 10v-8q0 -10 -16.5 -38.5t-21.5 -28.5q-3 0 -49.5 5.5t-50.5 5.5h-114v-223q0 -34 14 -34h230q2 0 28 2.5
t49 4.5zM341 656q0 -19 -13.5 -32.5t-31.5 -13.5q-43 0 -43 44q0 17 12 30.5t32 13.5q19 0 31.5 -13t12.5 -29zM214 656q0 -19 -13.5 -32.5t-32.5 -13.5q-42 0 -42 44q0 17 12 30.5t32 13.5q19 0 31.5 -13t12.5 -29z" />
    <glyph glyph-name="Igrave" unicode="&#xcc;" horiz-adv-x="309" 
d="M217 592q-9 -60 -23 -197q-7 -105 0 -290l17 -105h-114q17 142 17 167q5 94 5 183q0 83 -5 138q-6 40 -14 108q7 6 38 6q26 0 76 -3q0 -1 1.5 -2t1.5 -5zM260 631l-18 -27l-173 56l38 56z" />
    <glyph glyph-name="Iacute" unicode="&#xcd;" horiz-adv-x="298" 
d="M214 592q-9 -60 -23 -197q-8 -105 0 -290l16 -105h-113q16 142 16 167q6 94 6 183q0 83 -6 138q-5 40 -14 108q8 6 39 6q26 0 75 -3q0 -1 2 -2t2 -5zM247 653l-180 -51l-18 25l159 76z" />
    <glyph glyph-name="Icircumflex" unicode="&#xce;" horiz-adv-x="317" 
d="M226 577q-9 -58 -23 -192q-8 -102 0 -283l16 -102h-113q16 139 16 163q6 92 6 178q0 81 -6 135q-5 39 -14 105q8 6 39 6q26 0 75 -3q0 -1 2 -2t2 -5zM293 625l-17 -26l-109 49l-116 -49l-17 26l108 72h52z" />
    <glyph glyph-name="Idieresis" unicode="&#xcf;" horiz-adv-x="306" 
d="M214 600q-9 -61 -23 -200q-7 -106 0 -294l17 -106h-111q16 144 16 169q5 96 5 185q0 85 -5 141q-6 40 -14 109q7 6 38 6q25 0 73 -3l2.5 -2.5t1.5 -4.5zM273 661q0 -18 -13.5 -31.5t-32.5 -13.5q-43 0 -43 43q0 17 12 30t32 13t32.5 -12.5t12.5 -28.5zM144 661
q0 -18 -13.5 -31.5t-32.5 -13.5q-43 0 -43 43q0 17 12 30t33 13q19 0 31.5 -12.5t12.5 -28.5z" />
    <glyph glyph-name="Ntilde" unicode="&#xd1;" horiz-adv-x="698" 
d="M617 592l-12 -202l-1 -384l-85 -1q-33 45 -355 469q-5 -68 -4 -120l4 -242q6 -33 16 -108q-65 -4 -94 -1l18 156l-6 335q0 3 -10.5 44.5t-10.5 44.5t4 6l108 2q93 -132 357 -475l-8 399q-3 22 -9 76q4 2 44 2q39 1 44 -1zM535 707q3 -7 3 -16q0 -17 -9 -36
q-30 -17 -92 -44q-12 -4 -24 -4q-21 0 -62 20t-69 18q-26 -2 -60 -19q-38 -17 -56 -20q6 22 20 51q111 46 116 46q22 0 63 -21.5t69 -17.5q40 5 101 43z" />
    <glyph glyph-name="Ograve" unicode="&#xd2;" horiz-adv-x="792" 
d="M715 300q0 -120 -111.5 -217t-241.5 -97q-107 0 -195 76q-91 80 -104 193q-2 24 -2 42q0 103 88.5 197.5t217.5 118.5q13 2 50 2q128 0 218 -109q80 -97 80 -206zM631 270q0 1 -1 8.5t-1 20.5q-11 114 -97 190q-82 72 -186 72q-100 0 -158 -79q-48 -67 -48 -152
q0 -95 64 -184q77 -106 196 -106q108 0 171 64q60 62 60 166zM522 634l-19 -22l-183 47l40 46z" />
    <glyph glyph-name="Oacute" unicode="&#xd3;" horiz-adv-x="788" 
d="M715 296q0 -118 -111.5 -214t-241.5 -96q-107 0 -195 75q-91 79 -104 190q-2 24 -2 42q0 102 87 193q90 95 219 119q13 2 50 2q128 0 218 -107q80 -96 80 -204zM631 266q0 1 -1 8.5t-1 20.5q-11 113 -97 188q-82 71 -186 71q-100 0 -158 -79q-48 -65 -48 -150
q0 -93 64 -181q77 -105 196 -105q108 0 171 64q60 61 60 163zM448 652l-181 -48l-19 23l161 72z" />
    <glyph glyph-name="Ocircumflex" unicode="&#xd4;" horiz-adv-x="792" 
d="M715 303q0 -121 -111.5 -219t-241.5 -98q-107 0 -195 77q-91 80 -104 194q-2 24 -2 42q0 104 88.5 199.5t217.5 119.5q13 2 50 2q128 0 218 -110q80 -98 80 -207zM631 272q0 1 -1 8.5t-1 21.5q-11 115 -97 191q-82 72 -186 72q-100 0 -158 -80q-48 -67 -48 -152
q0 -96 64 -186q77 -107 196 -107q108 0 171 65q60 63 60 167zM545 645l-17 -23l-111 44l-119 -44l-17 23l110 66h53z" />
    <glyph glyph-name="Otilde" unicode="&#xd5;" horiz-adv-x="791" 
d="M715 299q0 -120 -112 -216.5t-241 -96.5q-107 0 -195 76q-91 79 -103 191q-3 24 -3 42q0 103 87 195q90 96 219 120q13 2 50 2q128 0 218 -108q80 -97 80 -205zM631 268q0 1 -1.5 9t-1.5 21q-11 113 -96 189q-82 71 -186 71q-100 0 -158 -79q-48 -66 -48 -151
q0 -94 64 -183q77 -106 196 -106q108 0 171 65q60 62 60 164zM508 697q3 -6 3 -13q0 -13 -7 -28q-24 -13 -72 -34q-10 -4 -19 -4q-16 0 -48 16t-55 14q-20 -2 -46 -14q-30 -14 -44 -17q5 18 15 41q88 36 92 36q16 0 50 -18q31 -16 53 -13q31 4 78 34z" />
    <glyph glyph-name="Odieresis" unicode="&#xd6;" horiz-adv-x="790" 
d="M714 294q0 -118 -111.5 -213t-240.5 -95q-107 0 -195 75q-91 78 -103 188q-2 24 -2 41q0 101 86 192q90 94 219 118q13 2 50 2q127 0 217 -107q80 -95 80 -201zM631 264q0 1 -1.5 8.5t-1.5 20.5q-11 112 -97 186q-81 70 -185 70q-100 0 -157 -78q-49 -65 -49 -148
q0 -93 64 -180q77 -104 196 -104q108 0 169.5 62t61.5 163zM487 657q0 -19 -15 -33t-35 -14q-48 0 -48 45q0 18 13.5 31.5t35.5 13.5t35.5 -13.5t13.5 -29.5zM346 657q0 -19 -14.5 -33t-35.5 -14q-47 0 -47 45q0 18 13 31.5t35 13.5t35.5 -13.5t13.5 -29.5z" />
    <glyph glyph-name="multiply" unicode="&#xd7;" horiz-adv-x="448" 
d="M370 139l-42 -42l-97 97l-108 -108l-42 42l108 107l-104 105l42 41l104 -104l93 94l42 -42l-93 -94z" />
    <glyph glyph-name="Ugrave" unicode="&#xd9;" horiz-adv-x="641" 
d="M551 226q1 -8 1 -16q0 -85 -113 -159q-102 -65 -183 -65q-105 0 -166 75q-54 67 -54 165v409q13 6 18 6q-5 0 16 -1.5t64 -1.5q4 -3 4 -13l-7.5 -52t-8.5 -79q-3 -73 -8 -172q3 -3 0 -117q9 -78 74 -125q58 -41 129 -41q169 0 169 250v349q29 -1 65 0v-412zM422 619
l-19 -27l-173 56l38 56z" />
    <glyph glyph-name="Uacute" unicode="&#xda;" horiz-adv-x="642" 
d="M551 226q1 -8 1 -16q0 -85 -113 -159q-102 -65 -183 -65q-105 0 -166 75q-54 67 -54 165v409q13 6 18 6q-5 0 16 -1.5t64 -1.5q4 -3 4 -13l-7.5 -52t-8.5 -79q-3 -73 -8 -172q3 -3 0 -117q9 -78 74 -125q58 -41 129 -41q169 0 169 250v349q29 -1 65 0v-412zM412 644
l-173 -56l-19 27l154 85z" />
    <glyph glyph-name="Ucircumflex" unicode="&#xdb;" horiz-adv-x="642" 
d="M551 226q1 -8 1 -16q0 -85 -113 -159q-102 -65 -183 -65q-105 0 -166 75q-54 67 -54 165v409q13 6 18 6q-5 0 16 -1.5t64 -1.5q4 -3 4 -13l-7.5 -52t-8.5 -79q-3 -73 -8 -172q3 -3 0 -117q9 -78 74 -125q58 -41 129 -41q169 0 169 250v349q29 -1 65 0v-412zM443 627
l-16 -26l-109 49l-116 -49l-17 26l108 72h51z" />
    <glyph glyph-name="Udieresis" unicode="&#xdc;" horiz-adv-x="644" 
d="M551 226q1 -8 1 -16q0 -85 -113 -159q-102 -65 -183 -65q-105 0 -166 75q-54 67 -54 165v409q13 6 18 6q-5 0 16 -1.5t64 -1.5q4 -3 4 -13l-7.5 -52t-8.5 -79q-3 -73 -8 -172q3 -3 0 -117q9 -78 74 -125q58 -41 129 -41q169 0 169 250v349q29 -1 65 0v-412zM427 653
q0 -21 -13.5 -37t-32.5 -16q-43 0 -43 51q0 20 12 35t33 15q19 0 31.5 -15t12.5 -33zM299 653q0 -21 -13.5 -37t-32.5 -16q-43 0 -43 51q0 20 12 35t33 15q19 0 31.5 -15t12.5 -33z" />
    <glyph glyph-name="Yacute" unicode="&#xdd;" horiz-adv-x="511" 
d="M511 635q-61 -89 -123 -177q-69 -105 -98 -179v-201q0 -12 4.5 -40t4.5 -29q0 -6 -4 -8.5t-111 -2.5q-2 7 2 21.5t4 16t6.5 32.5t7.5 47l5 153q-136 240 -228 369q38 7 111 1l163 -296l172 293q47 1 84 0zM337 647l-173 -56l-19 27l154 85z" />
    <glyph glyph-name="germandbls" unicode="&#xdf;" horiz-adv-x="518" 
d="M442 186q0 -56 -66 -126.5t-110 -70.5q-29 0 -68 24q-35 23 -57 51q45 45 52 45q-5 0 37.5 -30.5t81.5 -30.5q27 0 49 28t22 61q0 44 -56 65q-51 16 -103 33q-55 23 -55 72q0 36 30 70q19 21 62 52t54 44t11 28q0 38 -58 84q-51 41 -73 41q-41 0 -63 -44q-17 -34 -17 -71
q0 -29 -3 -176q-3 -107 1 -178l7 -157h-97q-3 3 -3 7q4 37 9 239q5 177 18 221q25 88 45 125q45 77 117 77q13 0 26 -2q53 -10 111 -67q61 -60 61 -112q0 -30 -24 -50q-7 -6 -89 -40q-69 -29 -69 -49q0 -38 57 -58l104 -32q56 -24 56 -73z" />
    <glyph glyph-name="agrave" unicode="&#xe0;" horiz-adv-x="551" 
d="M182 250q20 18 32 18h60q-5 21 -17 53q-11 27 -22 53q-27 -63 -53 -124zM357 1l-28 105q-17 58 -35 102q-3 3 -127 6q-43 -106 -82 -212h-68q-12 0 -12 14q0 -5 94 187t94 230q0 17 -17 45q26 9 106 9h5q80 -279 182 -486q-44 -2 -68 -2q-23 0 -44 2zM334 527l-19 -27
l-173 56l38 56z" />
    <glyph glyph-name="aacute" unicode="&#xe1;" horiz-adv-x="552" 
d="M183 250q19 18 31 18h60q-4 21 -17 53q-11 27 -21 53q-28 -63 -53 -124zM357 1q-19 75 -28 105q-17 58 -34 102q-4 3 -127 6q-44 -106 -82 -212h-68q-13 0 -13 14q0 -5 94 187t94 230q0 17 -16 45q26 9 105 9h6q79 -279 182 -486q-44 -2 -69 -2q-22 0 -44 2zM345 557
l-174 -55l-19 27l155 83z" />
    <glyph glyph-name="acircumflex" unicode="&#xe2;" horiz-adv-x="552" 
d="M182 250q20 18 32 18h60q-5 21 -17 53q-11 27 -22 53q-27 -63 -53 -124zM357 1l-28 105q-17 58 -35 102q-3 3 -127 6q-43 -106 -82 -212h-68q-12 0 -12 14q0 -5 94 187t94 230q0 17 -17 45q26 9 106 9h5q80 -279 182 -486q-44 -2 -68 -2q-23 0 -44 2zM362 520l-16 -26
l-109 49l-116 -49l-17 26l108 72h51z" />
    <glyph glyph-name="atilde" unicode="&#xe3;" horiz-adv-x="553" 
d="M183 250q19 18 31 18h60q-4 21 -17 53q-11 27 -21 53q-28 -63 -53 -124zM357 1q-19 75 -28 105q-17 58 -34 102q-4 3 -127 6q-44 -106 -82 -212h-68q-13 0 -13 14q0 -5 94 187t94 230q0 17 -16 45q26 9 105 9h6q79 -279 182 -486q-44 -2 -69 -2q-22 0 -44 2zM379 598
q6 -16 -4 -41q-21 -14 -65 -35q-8 -3 -16 -3q-15 0 -43.5 16t-48.5 14q-18 -2 -43 -15.5t-37 -16.5q4 18 13 41q78 37 82 37q15 0 43.5 -17.5t48.5 -13.5q27 4 70 34z" />
    <glyph glyph-name="adieresis" unicode="&#xe4;" horiz-adv-x="553" 
d="M183 250q19 18 31 18h60q-4 21 -17 53q-11 27 -21 53q-28 -63 -53 -124zM357 1q-19 75 -28 105q-17 58 -34 102q-4 3 -127 6q-44 -106 -82 -212h-68q-13 0 -13 14q0 -5 94 187t94 230q0 17 -16 45q26 9 105 9h6q79 -279 182 -486q-44 -2 -69 -2q-22 0 -44 2zM326 557
q0 -18 -11 -31.5t-27 -13.5q-37 0 -37 43t38 43q17 0 27 -13t10 -28zM218 557q0 -18 -11.5 -31.5t-27.5 -13.5q-36 0 -36 43t37 43q17 0 27.5 -13t10.5 -28z" />
    <glyph glyph-name="aring" unicode="&#xe5;" horiz-adv-x="552" 
d="M183 250q19 18 31 18h60q-4 21 -17 53q-11 27 -21 53q-28 -63 -53 -124zM357 1q-19 75 -28 105q-17 58 -34 102q-4 3 -127 6q-44 -106 -82 -212h-68q-13 0 -13 14q0 -5 94 187t94 230q0 17 -16 45q26 9 105 9h6q79 -279 182 -486q-44 -2 -69 -2q-22 0 -44 2zM310 564
q0 -21 -23.5 -38t-51.5 -17q-26 0 -43.5 15.5t-17.5 35.5q0 18 23 36.5t50 18.5q28 0 45.5 -16t17.5 -35zM291 553q0 19 -16 34.5t-43 15.5q-40 0 -40 -33q0 -19 16.5 -35t42.5 -16q40 0 40 34z" />
    <glyph glyph-name="ccedilla" unicode="&#xe7;" horiz-adv-x="494" 
d="M400 348q-62 79 -146 79q-72 0 -115 -60q-39 -54 -39 -129q0 -79 47.5 -128t126.5 -49q38 0 75 13q15 5 70 30v-22q0 -45 -65 -70q-50 -20 -104 -20q-96 0 -162.5 62t-66.5 157q0 102 85 190.5t187 88.5q28 0 84 -22q63 -25 63 -47q0 -9 -40 -73zM292 -82q0 -28 -18 -43
t-42 -15q-27 0 -48 49h27q7 -25 21 -25q11 0 22 9.5t11 20.5q0 14 -45 51l3 52h34q-3 0 -3 -39q38 -24 38 -60z" />
    <glyph glyph-name="egrave" unicode="&#xe8;" horiz-adv-x="410" 
d="M312 -7q-137 10 -282 4q-9 7 -9 18q0 16 4 47t4 46v280l-6 92h270q11 0 30 -10q-11 -22 -34 -66q-58 12 -158 14q-16 1 -16 -16v-100l181 8v-17q0 -9 -14.5 -35t-22.5 -26q-12 0 -36.5 4t-36.5 4h-74v-179h169q13 0 37.5 3t34.5 3q-16 -35 -41 -74zM294 531l-19 -27
l-173 56l38 56z" />
    <glyph glyph-name="eacute" unicode="&#xe9;" horiz-adv-x="412" 
d="M312 -7q-137 10 -282 4q-9 7 -9 18q0 16 4 47t4 46v280l-6 92h270q11 0 30 -10q-11 -22 -34 -66q-58 12 -158 14q-16 1 -16 -16v-100l181 8v-17q0 -9 -14.5 -35t-22.5 -26q-12 0 -36.5 4t-36.5 4h-74v-179h169q13 0 37.5 3t34.5 3q-16 -35 -41 -74zM296 553l-173 -56
l-19 27l154 85z" />
    <glyph glyph-name="ecircumflex" unicode="&#xea;" horiz-adv-x="413" 
d="M312 -7q-137 10 -282 4q-9 7 -9 18q0 16 4 47t4 46v280l-6 92h270q11 0 30 -10q-11 -22 -34 -66q-58 12 -158 14q-16 1 -16 -16v-100l181 8v-17q0 -9 -14.5 -35t-22.5 -26q-12 0 -36.5 4t-36.5 4h-74v-179h169q13 0 37.5 3t34.5 3q-16 -35 -41 -74zM309 537l-16 -26
l-109 49l-116 -49l-17 26l108 72h51z" />
    <glyph glyph-name="edieresis" unicode="&#xeb;" horiz-adv-x="410" 
d="M312 -7q-137 10 -282 4q-9 7 -9 18q0 16 4 47t4 46v280l-7 92h270q12 0 31 -10q-11 -22 -35 -66q-57 12 -157 14q-17 1 -17 -16v-100l182 8v-17q0 -9 -14.5 -35t-22.5 -26q-12 0 -36.5 4t-36.5 4h-74v-179h169q13 0 37.5 3t33.5 3q-15 -35 -40 -74zM281 561
q0 -17 -10.5 -30t-26.5 -13q-34 0 -34 41t35 41q16 0 26 -12t10 -27zM178 561q0 -17 -11 -30t-26 -13q-35 0 -35 41t36 41q16 0 26 -12t10 -27z" />
    <glyph glyph-name="igrave" unicode="&#xec;" horiz-adv-x="279" 
d="M198 452l-15 -158v-201l13 -96h-97q-3 2 -3 11q0 3 6 33.5t6 33.5v279l-5 98h95zM247 492l-19 -27l-173 56l38 56z" />
    <glyph glyph-name="iacute" unicode="&#xed;" horiz-adv-x="301" 
d="M203 455l-15 -158v-201l13 -96h-97q-3 2 -3 11q0 3 6 33.5t6 33.5v279l-5 98h95zM249 523l-173 -56l-19 27l154 85z" />
    <glyph glyph-name="icircumflex" unicode="&#xee;" horiz-adv-x="289" 
d="M209 452l-15 -158v-200l12 -96h-96q-4 2 -4 10q0 3 6.5 33.5t6.5 34.5v279l-5 97h95zM250 504l-12 -27l-83 51l-88 -51l-14 27l83 75h39z" />
    <glyph glyph-name="idieresis" unicode="&#xef;" horiz-adv-x="291" 
d="M189 455l-15 -158v-201l12 -96h-97q-3 2 -3 11q0 3 6.5 33.5t6.5 33.5v279l-5 98h95zM214 521q0 -16 -9.5 -27t-22.5 -11q-30 0 -30 36t31 36q14 0 22.5 -11t8.5 -23zM124 521q0 -16 -9.5 -27t-23.5 -11q-30 0 -30 36t31 36q14 0 23 -11t9 -23z" />
    <glyph glyph-name="ntilde" unicode="&#xf1;" horiz-adv-x="516" 
d="M422 6l-78 -2q-43 65 -246 347q-2 -57 -2 -65l4 -188q5 -31 12 -93q-38 -3 -55 -3t-35 2l14 131q2 19 1 51q-2 45 -2 50q0 19 1 57t1 57q0 20 -10.5 59.5t-10.5 55.5q0 9 7 12l2 2l88 1q75 -112 246 -348l-5 280q-3 21 -8 64q12 6 48 6q28 0 37 -5q-14 -163 -9 -471z
M389 578q2 -5 2 -12q0 -13 -7 -28q-23 -13 -72 -35q-9 -3 -18 -3q-16 0 -48.5 16t-54.5 14q-20 -2 -48 -15.5t-42 -15.5q4 18 15 40q87 36 91 36q17 0 49 -17t55 -14q30 5 78 34z" />
    <glyph glyph-name="ograve" unicode="&#xf2;" horiz-adv-x="615" 
d="M269 -10q-95 0 -163 74.5t-68 170.5t82.5 178t178.5 82q98 0 169 -77t71 -176q0 -98 -85.5 -175t-184.5 -77zM258 433q-65 0 -105 -53q-37 -49 -37 -116q0 -78 51 -143q55 -70 130 -70t117.5 45.5t42.5 121.5q0 85 -57 148q-59 67 -142 67zM401 540l-19 -27l-173 56
l38 56z" />
    <glyph glyph-name="oacute" unicode="&#xf3;" horiz-adv-x="612" 
d="M269 -10q-95 0 -163 74.5t-68 170.5t82.5 178t178.5 82q98 0 169 -77t71 -176q0 -98 -85.5 -175t-184.5 -77zM258 433q-65 0 -105 -53q-37 -49 -37 -116q0 -78 51 -143q55 -70 130 -70t117.5 45.5t42.5 121.5q0 85 -57 148q-59 67 -142 67zM375 564l-173 -56l-19 27
l154 85z" />
    <glyph glyph-name="ocircumflex" unicode="&#xf4;" horiz-adv-x="615" 
d="M269 -10q-95 0 -163 74.5t-68 170.5t82.5 178t178.5 82q98 0 169 -77t71 -176q0 -98 -85.5 -175t-184.5 -77zM258 433q-65 0 -105 -53q-37 -49 -37 -116q0 -78 51 -143q55 -70 130 -70t117.5 45.5t42.5 121.5q0 85 -57 148q-59 67 -142 67zM409 537l-16 -26l-109 49
l-116 -49l-17 26l108 72h51z" />
    <glyph glyph-name="otilde" unicode="&#xf5;" horiz-adv-x="615" 
d="M269 -10q-95 0 -163 74.5t-68 170.5t82.5 178t178.5 82q98 0 169 -77t71 -176q0 -98 -85.5 -175t-184.5 -77zM258 433q-65 0 -105 -53q-37 -49 -37 -116q0 -78 51 -143q55 -70 130 -70t117.5 45.5t42.5 121.5q0 85 -57 148q-59 67 -142 67zM444 602q2 -5 2 -12
q0 -13 -7 -28q-23 -13 -72 -35q-9 -3 -18 -3q-16 0 -48 16t-54 14q-20 -2 -48 -15t-42 -16q4 18 15 40q87 36 91 36q17 0 50 -17q30 -17 53 -14q30 5 78 34z" />
    <glyph glyph-name="odieresis" unicode="&#xf6;" horiz-adv-x="615" 
d="M269 -10q-95 0 -163 74.5t-68 170.5t82.5 178t178.5 82q98 0 169 -77t71 -176q0 -98 -85.5 -175t-184.5 -77zM258 433q-65 0 -105 -53q-37 -49 -37 -116q0 -78 51 -143q55 -70 130 -70t117.5 45.5t42.5 121.5q0 85 -57 148q-59 67 -142 67zM382 561q0 -18 -11 -30.5
t-26 -12.5q-34 0 -34 41q0 40 35 40q16 0 26 -12t10 -26zM279 561q0 -18 -10.5 -30.5t-25.5 -12.5q-35 0 -35 41q0 40 36 40q16 0 25.5 -12t9.5 -26z" />
    <glyph glyph-name="divide" unicode="&#xf7;" horiz-adv-x="468" 
d="M290 377q0 -22 -17.5 -38.5t-42.5 -16.5q-56 0 -56 52q0 21 15.5 36.5t42.5 15.5q25 0 41.5 -15.5t16.5 -33.5zM397 219h-343v59h343v-59zM290 117q0 -22 -17.5 -38t-42.5 -16q-56 0 -56 52q0 21 15.5 36.5t42.5 15.5q25 0 41.5 -15.5t16.5 -34.5z" />
    <glyph glyph-name="ugrave" unicode="&#xf9;" horiz-adv-x="501" 
d="M190 -11q-77 0 -125 54q-46 51 -46 129v301q16 8 24 8q10 0 31 -1t31 -1q9 -8 9 -19q0 -17 -6 -48q-5 -34 -6 -47q-6 -101 -6 -124v-84q3 -47 48 -80q41 -30 91 -30q113 0 113 171v260h27.5h24.5q4 0 16 4l1 -322q0 -63 -84 -119q-76 -52 -143 -52zM331 526l-19 -27
l-173 56l38 56z" />
    <glyph glyph-name="uacute" unicode="&#xfa;" horiz-adv-x="504" 
d="M190 -11q-77 0 -125 54q-46 51 -46 129v301q16 8 24 8q10 0 31 -1t31 -1q9 -8 9 -19q0 -17 -6 -48q-5 -34 -6 -47q-6 -101 -6 -124v-84q3 -47 48 -80q41 -30 91 -30q113 0 113 171v260h27.5h24.5q4 0 16 4l1 -322q0 -63 -84 -119q-76 -52 -143 -52zM332 552l-173 -56
l-19 27l154 85z" />
    <glyph glyph-name="ucircumflex" unicode="&#xfb;" horiz-adv-x="503" 
d="M190 -11q-77 0 -125 54q-46 51 -46 129v301q16 8 24 8q10 0 31 -1t31 -1q9 -8 9 -19q0 -17 -6 -48q-5 -34 -6 -47q-6 -101 -6 -124v-84q3 -47 48 -80q41 -30 91 -30q113 0 113 171v260h27.5h24.5q4 0 16 4l1 -322q0 -63 -84 -119q-76 -52 -143 -52zM359 527l-16 -26
l-109 49l-116 -49l-17 26l108 72h51z" />
    <glyph glyph-name="udieresis" unicode="&#xfc;" horiz-adv-x="504" 
d="M190 -11q-77 0 -125 54q-46 51 -46 129v301q16 8 24 8q10 0 31 -1t31 -1q9 -8 9 -19q0 -17 -5 -48q-6 -34 -7 -47q-6 -101 -6 -124v-84q3 -47 48 -80q42 -30 91 -30q113 0 113 171v260h27.5h24.5q4 0 16 4l1 -322q0 -63 -83 -119q-77 -52 -144 -52zM343 552
q0 -14 -12 -24.5t-29 -10.5q-39 0 -39 34t40 34q18 0 29 -10t11 -23zM227 552q0 -14 -12 -24.5t-29 -10.5q-39 0 -39 34t40 34q18 0 29 -10t11 -23z" />
    <glyph glyph-name="yacute" unicode="&#xfd;" horiz-adv-x="498" 
d="M256 209v-143q0 -9 3.5 -25.5t3.5 -24.5q0 -14 -16 -17q-2 -1 -27 -1l-59 1q-2 8 -2 14q0 1 10 47q4 23 8 140q-97 170 -174 276q37 5 45 5q17 0 60 -3l113 -203l120 202h25q20 0 60 -1l-92 -130q-53 -77 -78 -137zM345 520l-173 -56l-19 27l154 85z" />
    <glyph glyph-name="ydieresis" unicode="&#xff;" horiz-adv-x="498" 
d="M256 209v-143q0 -9 3.5 -25.5t3.5 -24.5q0 -14 -16 -17q-2 -1 -27 -1l-59 1q-2 8 -2 14q0 1 10 47q4 23 8 140q-97 170 -174 276q37 5 45 5q17 0 60 -3l113 -203l120 202h25q20 0 60 -1l-92 -130q-53 -77 -78 -137zM363 535q0 -21 -13.5 -37t-32.5 -16q-43 0 -43 51
q0 20 12 35t33 15q19 0 31.5 -15t12.5 -33zM235 535q0 -21 -13.5 -37t-32.5 -16q-43 0 -43 51q0 20 12 35t33 15q19 0 31.5 -15t12.5 -33z" />
    <glyph glyph-name="dotlessi" unicode="&#x131;" horiz-adv-x="211" 
d="M114 455l-15 -158v-201l13 -96h-97q-3 2 -3 11q0 3 6 33.5t6 33.5v279l-5 98h95z" />
    <glyph glyph-name="Ydieresis" unicode="&#x178;" horiz-adv-x="576" 
d="M575 635q-61 -89 -123 -177q-69 -105 -98 -179v-201q0 -12 4.5 -40t4.5 -29q0 -6 -4 -8.5t-111 -2.5q-2 7 2 21.5t4 16t6.5 32.5t7.5 47l5 153q-136 240 -228 369q38 7 111 1l163 -296l172 293q47 1 84 0zM415 657q0 -21 -13.5 -37t-32.5 -16q-43 0 -43 51q0 20 12 35
t33 15q19 0 31.5 -15t12.5 -33zM287 657q0 -21 -13.5 -37t-32.5 -16q-43 0 -43 51q0 20 12 35t33 15q19 0 31.5 -15t12.5 -33z" />
    <glyph glyph-name="circumflex" unicode="&#x2c6;" horiz-adv-x="382" 
d="M299 493l-16 -26l-109 49l-116 -49l-17 26l108 72h51z" />
    <glyph glyph-name="breve" unicode="&#x2d8;" horiz-adv-x="357" 
d="M301 574l-99 -72h-51l-109 72l18 26l116 -49l109 49z" />
    <glyph glyph-name="ring" unicode="&#x2da;" horiz-adv-x="338" 
d="M266 583q0 -37 -31.5 -67t-68.5 -30q-34 0 -57.5 28t-23.5 62q0 32 31 64.5t66 32.5q37 0 60.5 -28t23.5 -62zM241 564q0 33 -20 59q-23 29 -59 29q-25 0 -39 -17t-14 -41q0 -34 22 -61.5t56 -27.5q25 0 39.5 17t14.5 42z" />
    <glyph glyph-name="tilde" unicode="&#x2dc;" horiz-adv-x="487" 
d="M404 591q3 -7 3 -16q0 -17 -9 -36q-29 -17 -92 -44q-12 -4 -24 -4q-20 0 -61 20t-70 18q-25 -2 -61 -19t-54 -20q6 22 19 51q112 46 117 46q22 0 63 -21.5t69 -17.5q39 5 100 43z" />
    <glyph glyph-name="uni0394" unicode="&#x394;" horiz-adv-x="610" 
d="M529 0h-452l225 454z" />
    <glyph glyph-name="uni0394" unicode="&#x2206;" horiz-adv-x="610" 
d="M529 0h-452l225 454z" />
    <glyph glyph-name="endash" unicode="&#x2013;" horiz-adv-x="664" 
d="M590 317q-1 -16 -42 -49.5t-59 -33.5h-357q-27 0 -114 -15q29 40 49 56q30 25 68 25q53 0 351 2z" />
    <glyph glyph-name="emdash" unicode="&#x2014;" horiz-adv-x="880" 
d="M813 317q-2 -16 -43 -49.5t-59 -33.5h-577q-27 0 -114 -15q29 40 49 56q31 25 67.5 25t308 1t264.5 1z" />
    <glyph glyph-name="quoteleft" unicode="&#x2018;" horiz-adv-x="221" 
d="M179 553q0 -6 -65 -70q-53 53 -53 93q0 64 73 123q-9 -51 -9 -44q0 -30 27 -65t27 -37z" />
    <glyph glyph-name="quoteright" unicode="&#x2019;" horiz-adv-x="150" 
d="M161 611q0 -64 -72 -123q8 51 8 44q0 30 -27 65t-27 37q0 6 66 70q52 -53 52 -93z" />
    <glyph glyph-name="quotesinglbase" unicode="&#x201a;" horiz-adv-x="256" 
d="M162 80q0 -64 -73 -124q9 51 9 44q0 30 -27 65t-27 37q0 7 65 70q53 -53 53 -92z" />
    <glyph glyph-name="quotedblleft" unicode="&#x201c;" horiz-adv-x="345" 
d="M303 553q0 -6 -65 -70q-52 53 -52 93q0 64 72 123q-9 -51 -9 -44q0 -30 27 -65t27 -37zM159 553q0 -6 -65 -70q-52 53 -52 93q0 64 72 123q-9 -51 -9 -44q0 -30 27 -65t27 -37z" />
    <glyph glyph-name="quotedblright" unicode="&#x201d;" horiz-adv-x="368" 
d="M303 611q0 -64 -72 -123q9 51 9 44q0 30 -27 65t-27 37q0 6 65 70q52 -53 52 -93zM159 611q0 -64 -72 -123q9 51 9 44q0 30 -27 65t-27 37q0 6 65 70q52 -53 52 -93z" />
    <glyph glyph-name="quotedblbase" unicode="&#x201e;" horiz-adv-x="400" 
d="M306 87q0 -64 -72 -123q9 51 9 44q0 30 -27 65t-27 37q0 6 65 70q52 -53 52 -93zM162 87q0 -64 -72 -123q9 51 9 44q0 30 -27 65t-27 37q0 6 65 70q52 -53 52 -93z" />
    <glyph glyph-name="dagger" unicode="&#x2020;" horiz-adv-x="585" 
d="M519 336h-171v-501h-101v501h-167v105h167v213h101v-213h171v-105z" />
    <glyph glyph-name="daggerdbl" unicode="&#x2021;" horiz-adv-x="262" 
 />
    <glyph glyph-name="bullet" unicode="&#x2022;" horiz-adv-x="327" 
d="M235 232q0 -39 -27.5 -67t-67.5 -28q-39 0 -67 28t-28 67t28 67t67 28q40 0 67.5 -28t27.5 -67z" />
    <glyph glyph-name="ellipsis" unicode="&#x2026;" horiz-adv-x="831" 
d="M735 58q0 -27 -17 -47t-41 -20q-54 0 -54 63q0 26 15 45t41 19q25 0 40.5 -19t15.5 -41zM457 58q0 -27 -16.5 -47t-40.5 -20q-54 0 -54 63q0 26 15 45t41 19q24 0 41 -20q14 -18 14 -40zM174 58q0 -27 -17 -47t-40 -20q-54 0 -54 63q0 26 15 45t40 19t40.5 -19t15.5 -41z
" />
    <glyph glyph-name="perthousand" unicode="&#x2030;" horiz-adv-x="832" 
d="M773 108q-2 -54 -30 -88q-31 -38 -84 -38q-52 1 -81 39q-26 34 -28 86q-2 57 28 96t87 38q55 -1 84 -40q27 -35 24 -93zM523 108q-2 -54 -30 -88q-32 -38 -84 -38q-52 1 -82 39q-26 34 -28 86q-2 57 28.5 96t87.5 38q55 -1 84 -40q26 -35 24 -93zM443 458
q19 31 -270 -476h-66l254 448l-157 1q40 -35 37 -106q-2 -55 -30 -89q-30 -38 -83 -37q-52 1 -81 39q-26 33 -28 86q-3 55 29.5 94t83.5 39zM710 109q2 72 -47 73q-27 0 -39.5 -20t-10.5 -53q4 -66 47 -67q48 0 50 67zM460 109q1 72 -47 73q-27 0 -39.5 -20t-10.5 -53
q3 -66 47 -67q48 0 50 67zM179 325q2 72 -47 72q-27 1 -40 -18.5t-11 -52.5q4 -66 48 -67q48 -1 50 66z" />
    <glyph glyph-name="guilsinglleft" unicode="&#x2039;" horiz-adv-x="294" 
d="M204 338l-121 -111l120 -139l-1 -69l-153 185l10 62l144 167z" />
    <glyph glyph-name="guilsinglright" unicode="&#x203a;" horiz-adv-x="304" 
d="M60 338l121 -111l-120 -139l1 -69l153 185l-10 62l-144 167z" />
    <glyph glyph-name="fraction" unicode="&#x2044;" horiz-adv-x="398" 
d="M387 701l-297 -704h-63l292 704h68z" />
    <glyph glyph-name="trademark" unicode="&#x2122;" horiz-adv-x="579" 
d="M270 696q-1 -5 -12.5 -13t-18.5 -8h-23q-44 0 -33 -8q-6 -107 0 -168l3 -33l-1 -2h-39q-2 1 -1 5l7 89v109q0 3 -3 7l-36 1q-18 -1 -41 -5q23 32 42 27zM511 464h-45v22q0 7 -45 169q-10 -38 -19 -75q-18 -75 -18 -93q1 -10 4 -23l-49 -1q1 5 -1 22q-2 14 -37 172
q-17 -65 -44 -194h-30q37 121 36 131q0 -1 9.5 36t9.5 48q0 1 -1 5.5t-1 6.5v1q1 1 1 2q4 0 41 1l43 -190l40 178q6 11 8 11h35q1 -32 13 -75q10 -38 21 -75z" />
    <glyph glyph-name="infinity" unicode="&#x221e;" horiz-adv-x="636" 
d="M539 241q0 -37 -36 -64.5t-91 -27.5q-44 0 -134 87q-59 -71 -90 -71q-58 0 -98 40q-33 35 -33 69q0 27 32 50.5t72 23.5q42 0 111 -63q76 83 129 76q58 -8 98 -44t40 -76zM504 238q0 29 -34 54.5t-74 25.5q-49 0 -97 -57q83 -74 110 -74q43 0 61 6q34 11 34 45zM257 261
q-73 52 -87 52q-80 0 -80 -49q0 -21 27.5 -44t57.5 -23q39 0 82 64z" />
    <glyph glyph-name="approxequal" unicode="&#x2248;" horiz-adv-x="626" 
d="M564 94l-64 -65l-149 149l-165 -165l-64 64l165 165l-160 160l64 64l160 -160l143 143l64 -64l-143 -143z" />
    <glyph glyph-name="approxequal" unicode="&#x22f2;" horiz-adv-x="626" 
d="M564 94l-64 -65l-149 149l-165 -165l-64 64l165 165l-160 160l64 64l160 -160l143 143l64 -64l-143 -143z" />
    <glyph glyph-name="notequal" unicode="&#x2260;" horiz-adv-x="480" 
d="M397 132h-211l-38 -65h-46l38 65h-86v59h120l55 94h-175v59h209l31 54h46l-31 -54h88v-59h-122l-55 -94h177v-59z" />
    <glyph glyph-name="lessequal" unicode="&#x2264;" horiz-adv-x="482" 
d="M398 362l-266 -84l262 -105l-1 -52l-336 139l22 47l317 126zM386 42h-327v53h327v-53z" />
    <glyph glyph-name="greaterequal" unicode="&#x2265;" horiz-adv-x="457" 
d="M43 362l266 -84l-262 -105l1 -52l336 139l-22 47l-317 126zM382 42h-327v53h327v-53z" />
    <glyph glyph-name="lozenge" unicode="&#x25ca;" horiz-adv-x="857" 
d="M792 242l-369 -176l-369 176l369 176zM700 242l-277 132l-277 -132l277 -132z" />
    <glyph glyph-name="uniF001" unicode="&#xf001;" horiz-adv-x="432" 
d="M351 595q0 -27 -16.5 -47t-40.5 -20q-54 0 -54 64q0 13 5 26q-13 8 -27 8q-41 0 -63 -44q-16 -34 -16 -71v-55h125v-1h86l-15 -158v-201l12 -96h-96q-4 2 -4 11q0 3 6.5 33.5t6.5 33.5l-2 326q-27 7 -76 7h-46v-254l7 -157h-97q-3 3 -3 7l23 183v204q0 15 -12 16.5
t-26 3.5q4 7 22 26q16 16 20 27q25 88 46 125q44 77 116 77q13 0 27 -2q20 -2 54 -15q38 -13 38 -57z" />
    <glyph glyph-name="uniF002" unicode="&#xf002;" horiz-adv-x="430" 
d="M348 0h-97q-13 9 -13 11q0 3 11.5 33.5t11.5 33.5l-4 545q-8 3 -58 3q-41 0 -63 -44q-17 -34 -17 -71v-55l82 9q-12 -23 -31 -45q-32 0 -42.5 -5t-10.5 -4v-254l7 -157h-97q-3 3 -3 7l22 183v204q0 15 -10 17q-14 1 -27 3q4 7 22 26q16 16 20 27q26 93 45 125
q46 79 131 79q20 0 41.5 -3.5t41.5 -6.5q33 -6 33 -18q-3 -74 -7 -159v-388z" />
    </font>
</defs>
</svg>
